<svg id="Clouds" xmlns="http://www.w3.org/2000/svg" viewBox="0 0 1504.14 309.39"><defs><style>.cls-1{fill:#fff;}</style></defs><title>Via_Homepage_Illustration_100416_Clouds</title><rect class="cls-1" x="454.56" y="159.25" width="19.74" height="3.87" transform="translate(928.87 322.36) rotate(-180)"/><circle class="cls-1" cx="471.41" cy="159.23" r="2.9"/><circle class="cls-1" cx="457.46" cy="159.23" r="2.9"/><circle class="cls-1" cx="464.44" cy="158.52" r="4.59"/><rect class="cls-1" x="995.96" y="125.25" width="10.61" height="2.08" transform="translate(2002.53 252.57) rotate(-180)"/><circle class="cls-1" cx="1005.01" cy="125.24" r="1.56"/><circle class="cls-1" cx="997.52" cy="125.24" r="1.56"/><circle class="cls-1" cx="1001.26" cy="124.85" r="2.47"/><rect class="cls-1" x="1004.65" y="166.74" width="17.85" height="3.5" transform="translate(2027.15 336.98) rotate(-180)"/><circle class="cls-1" cx="1019.88" cy="166.73" r="2.62"/><circle class="cls-1" cx="1007.27" cy="166.73" r="2.62"/><circle class="cls-1" cx="1013.58" cy="166.09" r="4.15"/><rect class="cls-1" x="690.51" y="134.03" width="13.85" height="2.71" transform="translate(1394.88 270.78) rotate(-180)"/><circle class="cls-1" cx="702.33" cy="134.02" r="2.03"/><circle class="cls-1" cx="692.55" cy="134.02" r="2.03"/><circle class="cls-1" cx="697.44" cy="133.52" r="3.22"/><rect class="cls-1" x="663.17" y="144.85" width="22.5" height="4.4" transform="translate(1348.83 294.11) rotate(-180)"/><circle class="cls-1" cx="682.36" cy="144.83" r="3.3"/><circle class="cls-1" cx="666.47" cy="144.83" r="3.3"/><circle class="cls-1" cx="674.42" cy="144.02" r="5.23"/><rect class="cls-1" x="140.45" y="159.86" width="13.04" height="2.55" transform="translate(293.93 322.28) rotate(-180)"/><circle class="cls-1" cx="151.57" cy="159.85" r="1.91"/><circle class="cls-1" cx="142.36" cy="159.85" r="1.91"/><circle class="cls-1" cx="146.96" cy="159.38" r="3.03"/><rect class="cls-1" x="96.23" y="115.73" width="21.17" height="4.14" transform="translate(213.62 235.61) rotate(-180)"/><circle class="cls-1" cx="114.29" cy="115.72" r="3.11"/><circle class="cls-1" cx="99.34" cy="115.72" r="3.11"/><circle class="cls-1" cx="106.81" cy="114.95" r="4.93"/><rect class="cls-1" x="11.66" y="138.52" width="18.06" height="3.54" transform="translate(41.38 280.57) rotate(-180)"/><circle class="cls-1" cx="27.07" cy="138.5" r="2.65"/><circle class="cls-1" cx="14.31" cy="138.5" r="2.65"/><circle class="cls-1" cx="20.69" cy="137.85" r="4.2"/><rect class="cls-1" x="831.84" y="139.48" width="18.81" height="3.68" transform="translate(1682.48 282.64) rotate(-180)"/><circle class="cls-1" cx="847.88" cy="139.47" r="2.76"/><circle class="cls-1" cx="834.6" cy="139.47" r="2.76"/><circle class="cls-1" cx="841.24" cy="138.79" r="4.38"/><rect class="cls-1" x="1159.17" y="144.16" width="16.04" height="3.14" transform="translate(2334.38 291.46) rotate(-180)"/><circle class="cls-1" cx="1172.86" cy="144.15" r="2.36"/><circle class="cls-1" cx="1161.52" cy="144.15" r="2.36"/><circle class="cls-1" cx="1167.19" cy="143.57" r="3.73"/><rect class="cls-1" x="1450.81" y="150.37" width="16.04" height="3.14" transform="translate(2917.67 303.87) rotate(-180)"/><circle class="cls-1" cx="1464.5" cy="150.35" r="2.36"/><circle class="cls-1" cx="1453.17" cy="150.35" r="2.36"/><circle class="cls-1" cx="1458.84" cy="149.77" r="3.73"/><rect class="cls-1" x="1205.78" y="123.18" width="10.61" height="2.08" transform="translate(2422.17 248.44) rotate(-180)"/><circle class="cls-1" cx="1214.83" cy="123.17" r="1.56"/><circle class="cls-1" cx="1207.34" cy="123.17" r="1.56"/><circle class="cls-1" cx="1211.09" cy="122.79" r="2.47"/><rect class="cls-1" x="327.11" y="134.26" width="22.5" height="4.4" transform="translate(676.73 272.92) rotate(-180)"/><circle class="cls-1" cx="346.31" cy="134.24" r="3.3"/><circle class="cls-1" cx="330.42" cy="134.24" r="3.3"/><circle class="cls-1" cx="338.36" cy="133.43" r="5.23"/><rect class="cls-1" x="249.16" y="125.77" width="16.04" height="3.14" transform="translate(514.36 254.68) rotate(-180)"/><circle class="cls-1" cx="262.84" cy="125.76" r="2.36"/><circle class="cls-1" cx="251.51" cy="125.76" r="2.36"/><circle class="cls-1" cx="257.18" cy="125.18" r="3.73"/><rect class="cls-1" x="389.3" y="115" width="10.61" height="2.08" transform="translate(789.21 232.08) rotate(-180)"/><circle class="cls-1" cx="398.35" cy="114.99" r="1.56"/><circle class="cls-1" cx="390.86" cy="114.99" r="1.56"/><circle class="cls-1" cx="394.6" cy="114.61" r="2.47"/><rect class="cls-1" x="1200.96" y="154.64" width="25.04" height="4.9" transform="translate(2426.95 314.18) rotate(-180)"/><circle class="cls-1" cx="1222.31" cy="154.62" r="3.68"/><circle class="cls-1" cx="1204.63" cy="154.62" r="3.68"/><circle class="cls-1" cx="1213.47" cy="153.72" r="5.83"/><rect class="cls-1" x="1310.08" y="150.6" width="22.5" height="4.4" transform="translate(2642.66 305.61) rotate(-180)"/><circle class="cls-1" cx="1329.28" cy="150.59" r="3.3"/><circle class="cls-1" cx="1313.39" cy="150.59" r="3.3"/><circle class="cls-1" cx="1321.33" cy="149.77" r="5.23"/><rect class="cls-1" x="1377.47" y="124.61" width="10.61" height="2.08" transform="translate(2765.55 251.3) rotate(-180)"/><circle class="cls-1" cx="1386.52" cy="124.6" r="1.56"/><circle class="cls-1" cx="1379.03" cy="124.6" r="1.56"/><circle class="cls-1" cx="1382.77" cy="124.22" r="2.47"/></svg>