<svg id="People" xmlns="http://www.w3.org/2000/svg" viewBox="0 0 1504.14 309.39"><defs><style>.cls-1{fill:#bfc0c1;}.cls-2{fill:#58595b;}.cls-3{fill:#2f457c;}.cls-4{fill:#e3b6a1;}.cls-5{fill:#6d6e71;}.cls-6{fill:#59595c;}.cls-7{fill:#b7b9bb;}.cls-8{fill:#2a3e68;}.cls-9{fill:#856546;}.cls-10{fill:#fff;}.cls-11{fill:#774f36;}.cls-12{fill:#865e3b;}.cls-13{fill:#221f1f;}.cls-14{fill:#603a17;}.cls-15{fill:#eff0f0;}.cls-16{fill:#a2a4a7;}.cls-17{fill:#841d1b;}.cls-18{fill:#85311d;}.cls-19{fill:#f5921e;}.cls-20{fill:#f9ae40;}.cls-21{fill:#231f20;}.cls-22{fill:#cfd1d2;}.cls-23{fill:#821a27;}.cls-24{fill:#721726;}.cls-25{fill:#ef5a29;}.cls-26{fill:#dd4a22;}.cls-27{fill:#e4e5e6;}.cls-28{fill:#f3c3a7;}.cls-29{fill:#024f28;}.cls-30{fill:none;}.cls-31{fill:#d85499;}.cls-32{fill:#d8416c;}.cls-33{fill:#372012;}</style></defs><title>Via_Homepage_Illustration_100416_People</title><ellipse class="cls-1" cx="674.23" cy="259.9" rx="19.74" ry="3.35"/><path class="cls-2" d="M662.31,261.2a1,1,0,0,0,.54,0,.85.85,0,0,0,.37-.38,2,2,0,0,0-.09-1.1c0-.16-.14-.26-.2-.42a5.5,5.5,0,0,1-.3-1.53l-.83-.49-.67.19L661,258s.06,1.17.08,1.48.05.67.07,1A2.23,2.23,0,0,0,662.31,261.2Z"/><path d="M677.06,257.26l.29-1.5-2.21-.45s-.16.48-.32.89a1.06,1.06,0,0,1,.47.08c.59.22-.21,1.32-.21,1.32l-3.31,1.19c.1-.19-.15-.58-.33-.82a3.15,3.15,0,0,0-.87.36,1,1,0,0,0-.37.4c.16.12.07.33.19.54a.6.6,0,0,0,.13.15l.78.14a3.09,3.09,0,0,0,1.73-.28,4.29,4.29,0,0,1,1.39-.19c.69,0,1,.15,1.74.11a1.37,1.37,0,0,0,.68-.19,6.71,6.71,0,0,1,0-.77A7.19,7.19,0,0,1,677.06,257.26Z"/><path class="cls-3" d="M687.82,240.94c-2.1-.55-2.55-3.31-2.64-4.65a7.47,7.47,0,0,1-2.66-.91s-.52,4.46-4,5.09c-.79,3-1.26,6.13-1.51,7.27a52.19,52.19,0,0,1-2,6,13.65,13.65,0,0,0,4.53-4.57c.15-.63.29-1.22.41-1.72a49.84,49.84,0,0,1,3.49-8.33c.77,1.24,1.32,6.62,1.46,9.75a1.86,1.86,0,0,0,2.82-.21c0-1.68,0-3.19.13-4.14A19.84,19.84,0,0,0,687.82,240.94Z"/><path class="cls-4" d="M662.61,257.87a5.84,5.84,0,0,0,.41,1.71.68.68,0,0,1-.63.53,1.08,1.08,0,0,1-1.18-.86c-.05-.49-.11-1.46-.11-1.46Z"/><path d="M672.43,258.21a3.52,3.52,0,0,0-.1-.47l-.1,0-.23.07a1.89,1.89,0,0,1,.16.48Z"/><path d="M673.05,258a3.27,3.27,0,0,0-.11-.52l-.29.11a1.28,1.28,0,0,1,.14.51Z"/><path d="M673.58,257.82a3.24,3.24,0,0,0-.11-.53l-.29.12a1.29,1.29,0,0,1,.15.51Z"/><path d="M670.52,259.43a.6.6,0,0,1-.13-.15c-.12-.21,0-.43-.19-.54a1.55,1.55,0,0,0-.17.59Z"/><path class="cls-5" d="M670,259.33a1.46,1.46,0,0,0,0,.21,6.32,6.32,0,0,0,1.35.36,3.94,3.94,0,0,1-.85-.47Z"/><path class="cls-5" d="M674.42,259.11a4.29,4.29,0,0,0-1.39.19,3.09,3.09,0,0,1-1.73.28l-.78-.14a3.94,3.94,0,0,0,.85.47,4,4,0,0,0,.65,0,10.74,10.74,0,0,0,1.85-.51,10.87,10.87,0,0,1,1.69.12,1.72,1.72,0,0,0,1.23-.23.74.74,0,0,0,.05-.3,1.37,1.37,0,0,1-.68.19C675.38,259.26,675.1,259.09,674.42,259.11Z"/><path class="cls-6" d="M671.77,258.8l3.31-1.19s.81-1.1.21-1.32a1.06,1.06,0,0,0-.47-.08,2.61,2.61,0,0,1-.27.54,4.61,4.61,0,0,1-1.08.54,3.24,3.24,0,0,1,.11.53l-.26.1a1.29,1.29,0,0,0-.15-.51l-.23.09a3.27,3.27,0,0,1,.11.52l-.26.1a1.28,1.28,0,0,0-.14-.51l-.32.12a3.52,3.52,0,0,1,.1.47l-.26.11a1.89,1.89,0,0,0-.16-.48l-.57.14C671.62,258.22,671.87,258.61,671.77,258.8Z"/><path class="cls-7" d="M678.1,238.45s4.25,3.62,11.76,1.24l-2.15-3.7h-7.58Z"/><path class="cls-8" d="M675,253.75c-.52,1.35-.92,2.34-.92,2.34a2.93,2.93,0,0,1,1.37.4c1.68,1.32,2.24,1.38,2.24,1.38s1-5.13,1.85-8.69A13.65,13.65,0,0,1,675,253.75Z"/><path class="cls-8" d="M674.12,256.09s.43.27,3.61,1.78l-.79-2.19h-2.1Z"/><path class="cls-9" d="M687.94,257.85a20.13,20.13,0,0,1-3.63,0l.45-.8,2.8-.41Z"/><path d="M685.3,259.2a2.37,2.37,0,0,1,.37.87,3.15,3.15,0,0,0,.25.92,1,1,0,0,0,.88.61.66.66,0,0,0,.1-.14c.18-.32.44-.57.81-.3a1.81,1.81,0,0,0,.3.17.72.72,0,0,0,.43-.89c0-.11,0-.32,0-.53a11.55,11.55,0,0,0-1.1-1.36c-.22-.22-.11-1.18-.11-1.18l-2.1-.38a17.41,17.41,0,0,0-.25,1.78A3.6,3.6,0,0,1,685.3,259.2Zm1-1.76c.74,0,.43.56.49.78s.82,1.64.82,1.64a2.41,2.41,0,0,0-1.5.32l-.71-1.82C685.5,257.88,685.6,257.41,686.34,257.44Z"/><path class="cls-5" d="M688.53,260.11a1.26,1.26,0,0,0-.11-.2c0,.21,0,.42,0,.53a.72.72,0,0,1-.43.89,2,2,0,0,0,.36.13,1.06,1.06,0,0,0,.23-.3A3.51,3.51,0,0,0,688.53,260.11Z"/><path class="cls-5" d="M686.81,261.6a1,1,0,0,1-.88-.61,3.15,3.15,0,0,1-.25-.92,2.37,2.37,0,0,0-.37-.87,3.6,3.6,0,0,0-.44-.44.63.63,0,0,0,0,.2c.09.25.57.35.66,1s0,.8.09,1.09a1.51,1.51,0,0,0,.74.75A.72.72,0,0,0,686.81,261.6Z"/><path d="M686.23,259.68a2.33,2.33,0,0,1,1-.22l-.11-.25a4,4,0,0,0-.92.16Z"/><path d="M686.88,258.85a3.52,3.52,0,0,0-.84.16l.05.2a2.81,2.81,0,0,1,.9-.2Z"/><path d="M686.67,258.54a3.12,3.12,0,0,0-.75.13l0,.18a2.49,2.49,0,0,1,.8-.16Z"/><path class="cls-6" d="M687.65,259.86s-.76-1.42-.82-1.64.25-.75-.49-.78-.84.44-.9.91l.71,1.82A2.41,2.41,0,0,1,687.65,259.86Zm-.57-.65.11.25a2.33,2.33,0,0,0-1,.22l-.06-.31A4,4,0,0,1,687.09,259.21Zm-1.16-.54a3.12,3.12,0,0,1,.75-.13l.09.14a2.49,2.49,0,0,0-.8.16Zm.11.34a3.52,3.52,0,0,1,.84-.16l.1.16a2.81,2.81,0,0,0-.9.2Z"/><path class="cls-8" d="M687.75,248.67a1.86,1.86,0,0,1-2.82.21c0,.56,0,1.05,0,1.44,0,2.5-.66,7.54-.66,7.54a7.15,7.15,0,0,1,1.9-.28c1.44,0,1.72.28,1.72.28S687.75,252.78,687.75,248.67Z"/><path class="cls-8" d="M687.82,240.94a46.85,46.85,0,0,0-.73-4.84,4.23,4.23,0,0,1-1.9.19C685.27,237.64,685.72,240.4,687.82,240.94Z"/><path class="cls-8" d="M682.52,235.38a9.79,9.79,0,0,1-1.49-1,18.15,18.15,0,0,0-2.47,6.08C682,239.84,682.52,235.38,682.52,235.38Z"/><path class="cls-10" d="M686.94,222.24s-3-2.22-5.25,0"/><path class="cls-11" d="M686.63,222.67c-1.35-.58-.92-2.59-.92-2.59h-1.34v-.16h-1.69s.68,2-.67,2.58l2.26,2.66v.27Z"/><ellipse class="cls-12" cx="684.27" cy="216.22" rx="4.2" ry="4.78"/><ellipse class="cls-12" cx="680.12" cy="217.1" rx="0.75" ry="0.81"/><ellipse class="cls-12" cx="688.47" cy="217.17" rx="0.75" ry="0.81"/><circle class="cls-13" cx="686.53" cy="216.91" r="0.32"/><path class="cls-14" d="M685.79,216.33a1.29,1.29,0,0,1,1.41.25l.16-.24a1.33,1.33,0,0,0-1.65-.25Z"/><circle class="cls-13" cx="682.01" cy="216.91" r="0.32"/><path class="cls-14" d="M682.75,216.28a1.29,1.29,0,0,0-1.41.25l-.16-.24a1.33,1.33,0,0,1,1.65-.25Z"/><ellipse class="cls-14" cx="684.27" cy="217.34" rx="0.6" ry="0.41"/><path class="cls-15" d="M680.55,222.69h1.78l1.19.38.8.08.76-.06,1.77-.4.56.25.12,12.77a4.91,4.91,0,0,1-3.44,1.17,8,8,0,0,1-3.79-2Z"/><path class="cls-7" d="M687.08,222.46a15.32,15.32,0,0,1,0,4.83c-.45,1.9-1.11,6-1.11,6s1.91,4.36,1.54,6.71a2.21,2.21,0,0,0,2.3-.34,21.59,21.59,0,0,1-1.08-7.06c.11-3.75.21-7.8.21-7.8S688.87,222.45,687.08,222.46Z"/><path class="cls-10" d="M688.36,227.11s-.35,5.33-.48,6.07C687.88,233.18,689.59,227.94,688.36,227.11Z"/><path class="cls-7" d="M682.52,222.06a13.76,13.76,0,0,0-2.3.5c-.48.24-1.22,2-1.22,2a22,22,0,0,1,.85,3.83c.13,1.59-.16,6.48-.71,7.77s-1,2.25-1,2.25a3.2,3.2,0,0,0,1.91,1.26,27.2,27.2,0,0,1,1.4-4c.46-.72.28-3,.28-3s-.43-6.45-.31-7.79A4.38,4.38,0,0,1,682.52,222.06Z"/><polygon class="cls-12" points="686.63 236.78 686.25 237.05 686.63 238.22 687.28 237.77 686.63 236.78"/><polyline class="cls-12" points="681.01 236.25 681.47 236.46 681.14 237.5 680.64 237.09 681 236.31"/><path class="cls-16" d="M680.06,222.69a9.38,9.38,0,0,0-2.64,6.27c-.19,4.07.87,7.09,3.2,8.54l.77-1.51s-2-1.37-2.19-5.85c-.12-2.61.41-3.29.41-3.29Z"/><path class="cls-16" d="M688.35,227.06l.23-3.66a6.64,6.64,0,0,1,1.78,3.79,13.82,13.82,0,0,1-.5,6.35,32.13,32.13,0,0,1-2.53,5.05l-.91-2.09a24.32,24.32,0,0,0,1.9-4.28C688.72,230.63,689.12,228,688.35,227.06Z"/><path class="cls-17" d="M682.52,218.55a2.22,2.22,0,0,0,.25.16,18.12,18.12,0,0,1,3,0l.26-.17A13.15,13.15,0,0,0,682.52,218.55Z"/><path class="cls-18" d="M682.78,218.71a3,3,0,0,0,3,0A18.12,18.12,0,0,0,682.78,218.71Z"/><path class="cls-14" d="M688.77,215.73a2.66,2.66,0,0,1-.35,1.75,11.41,11.41,0,0,0-.56-2.28,4,4,0,0,0-.36-.88c-.16-.26-.37-.47-.54-.73a2.36,2.36,0,0,1-.36-.91,4.22,4.22,0,0,1-.87.08,9,9,0,0,0-3.68.95,3.19,3.19,0,0,0-1.41,1.18,3.54,3.54,0,0,0-.32.9,2.85,2.85,0,0,0-.12.9c0,.16,0,.34-.07.45a4.6,4.6,0,0,1-.06-2.83c.13-.31.33-.59.45-.91a2.23,2.23,0,0,1,.33-.74,3.14,3.14,0,0,1,.86-.46c.27-.15.47-.39.73-.55a3,3,0,0,1,1.29-.34l.94-.1a2,2,0,0,1,1.3.16,5.09,5.09,0,0,1,.5.45.7.7,0,0,0,.61.2.35.35,0,0,1,.18,0,.25.25,0,0,1,.13.13l.4.66a8.25,8.25,0,0,1,.77,1.47,4.13,4.13,0,0,1,.24,1.53"/><path class="cls-19" d="M685.24,223.09a2.22,2.22,0,0,1-1.68.06l-.38.47a4.28,4.28,0,0,0,2.32,0Z"/><polygon class="cls-19" points="684.71 224.33 684.98 232.16 684.5 232.78 683.92 232.16 684 224.33 684.71 224.33"/><polygon class="cls-20" points="684 223.15 684.74 223.15 684.98 223.63 684.71 224.33 684 224.33 683.71 223.71 684 223.15"/><path class="cls-10" d="M684.32,223.15a3.63,3.63,0,0,0,2-1.2l1.36.6a12.1,12.1,0,0,0-2,1.87A1.72,1.72,0,0,0,684.32,223.15Z"/><path class="cls-10" d="M684.38,223.15a3.63,3.63,0,0,1-2-1.2l-1.43.39a15.54,15.54,0,0,1,2.08,2.09A1.72,1.72,0,0,1,684.38,223.15Z"/><path class="cls-2" d="M669.94,261.52c.5.06.82-.46,1-.74v0a4.65,4.65,0,0,0-.09-2l-.27-1.17-1.35.31,0,.31s0,1.35,0,1.63-.1.67-.11,1A.91.91,0,0,0,669.94,261.52Z"/><path class="cls-21" d="M662.31,261.2a2.23,2.23,0,0,1-1.12-.8l0,.26a2.25,2.25,0,0,0,.89.71c.44.12,1,.2,1.09-.29l0-.24C662.83,261.27,662.65,261.27,662.31,261.2Z"/><path class="cls-4" d="M669.32,258.1s0,1.3,0,1.63.08.77.75.71.92-.52.79-1.17-.39-1.57-.39-1.57Z"/><path class="cls-4" d="M672.1,225.2a4.93,4.93,0,0,1-.35-1.09.82.82,0,0,0-.08.9c.24.6.17.37.17.37a4.59,4.59,0,0,1-.71-.9,1.45,1.45,0,0,0,.45,1.14,2.57,2.57,0,0,1-.75-.41.81.81,0,0,0,.54.62c.48.17.41-.1.41-.1Z"/><polygon class="cls-13" points="672.78 224.13 674.05 225.09 671.12 227.65 669.86 226.7 672.78 224.13"/><path class="cls-4" d="M672.39,227.93a3.26,3.26,0,0,0,.72-1.22c.06-.48.13-.91.13-.91l-.43.38c-.25.22-.53.46-.57.3s.24-.51.19-.87-.15-.32-.15-.32a2.2,2.2,0,0,1-.33.69,1.18,1.18,0,0,0,.07,1.2l-.27.49Z"/><path class="cls-22" d="M666.85,229.59s1.16,3,1.84,2.88,3.65-3.75,4-4.66c0,0-.8-.15-.85-.48,0,0-2.57,2.9-2.68,2.83s-.34-3-1.41-3.45Z"/><path class="cls-23" d="M666.6,234h0l-5.52-.25a17.15,17.15,0,0,0-1.88,5.65c-.37,2.48.83,8.6.83,8.6a9.41,9.41,0,0,0,.21,4.84,40.93,40.93,0,0,1,.58,5.21l2-.83s-.58-7.81-.41-9.47,1-7.81,1-7.81C665,238.79,666.45,234.51,666.6,234Z"/><path class="cls-24" d="M668.71,241.72c-.12-3.16-2-7.5-2.11-7.67l-.13.37c-.42,1.18-1.72,4.53-3.1,5.56,0,1.61,2,6.33,2.89,7.77s2.65,10.34,2.65,10.34l1.94-.5A130.3,130.3,0,0,1,668.71,241.72Z"/><path class="cls-25" d="M661.23,219.88s.36,2.3.41,3.48a7.24,7.24,0,0,1-.85,2.79l2.38-1.18-.21-2.47Z"/><polygon class="cls-26" points="665.42 223.2 664.76 223.59 665.09 224.83 665.77 225.86 666.3 224.72 668.03 223.33 666.3 222.76 665.42 223.2"/><path class="cls-4" d="M662.84,222.65s.32,2.32-1,2.82c0,0,.85,3,2.37,3.93l2.37-3.85s-1.24.14-1.36-2.07Z"/><path class="cls-27" d="M667.45,228.76l-.29-3h-1.09a11.4,11.4,0,0,1-.68,1.78,9.51,9.51,0,0,1-1,1.37.61.61,0,0,1-.13.11,8.11,8.11,0,0,1-1.58-2c-.23-.6-.35-1.35-.67-1.52l-.12,0a2.55,2.55,0,0,0-1.32.39,16.31,16.31,0,0,1-.37,4.07,24.93,24.93,0,0,0,.89,3.86s1.79.2,2.68.25,2.84,0,2.84,0a19.71,19.71,0,0,0,1.25-3.23A13.26,13.26,0,0,0,667.45,228.76Z"/><circle class="cls-28" cx="665.42" cy="219.7" r="4.15"/><circle class="cls-29" cx="664.18" cy="219.74" r="0.32"/><circle class="cls-29" cx="667.48" cy="221.38" r="0.32"/><ellipse class="cls-4" cx="665.86" cy="221.05" rx="0.39" ry="0.56" transform="translate(176.89 724.19) rotate(-64.18)"/><path class="cls-25" d="M668.07,220.9a.35.35,0,0,0-.18-.23.74.74,0,0,0-.49,0l-.07-.2a.94.94,0,0,1,.66,0,.56.56,0,0,1,.28.36Z"/><path class="cls-25" d="M664.67,219.39a.65.65,0,0,0-.86-.3l-.1-.19a.85.85,0,0,1,1.15.39l-.19.1.09-.05Z"/><path class="cls-30" d="M660.18,229.95v0Z"/><path class="cls-22" d="M660.55,225.86a4.44,4.44,0,0,0-1.66,1.62c-.58,1.07-.5,4.16-.39,6.67a10.78,10.78,0,0,0,1.56,4.74,8.66,8.66,0,0,0,.12-3,41.19,41.19,0,0,1,0-6h0v0A16.31,16.31,0,0,0,660.55,225.86Z"/><path class="cls-21" d="M666.77,234.43s-2,.59-5.91-.25l-.21.43a19.35,19.35,0,0,0,6.3.23Z"/><polygon class="cls-23" points="663.38 234.41 663.29 235.13 663.07 235.13 663.22 234.36 663.38 234.41"/><polygon class="cls-23" points="661.52 234.13 661.24 234.99 661.05 234.88 661.28 234.13 661.52 234.13"/><polygon class="cls-23" points="665.38 234.48 665.45 235.13 665.64 235.13 665.51 234.48 665.38 234.48"/><polygon class="cls-24" points="666.61 235.04 666.76 235.04 666.61 234.36 666.48 234.42 666.61 235.04"/><path class="cls-31" d="M663.89,221.31a1.27,1.27,0,0,0,0,.35,3.53,3.53,0,0,1,1.58.76,4.17,4.17,0,0,0,.52-.13A12.41,12.41,0,0,0,663.89,221.31Z"/><path class="cls-32" d="M663.93,221.66c.1.4.44,1,1.58.76A3.53,3.53,0,0,0,663.93,221.66Z"/><path class="cls-23" d="M660.81,258.09a3.49,3.49,0,0,0,1.42.06.79.79,0,0,0,.61-.85l0-.39-.4-.1-1.34.59-.28.29Z"/><path class="cls-24" d="M668.92,258.09s.1.27.88.24,1-.36,1.07-.74l-.7-.78-1.13.7Z"/><path class="cls-24" d="M660.27,236.36s1.57,1.74,1.41,3-1,.52-1.65-.34Z"/><path class="cls-25" d="M663.86,216.31l-.1-.62a3.81,3.81,0,0,0-2.27,2.21,3.16,3.16,0,0,0-.08.39h0a4.21,4.21,0,0,0,0,1.63c0,.15.05.31.09.46a1.59,1.59,0,0,0,.16.49c.09.15.16-.29.18-.6a4,4,0,0,1,.32-1.38l.39-.58a3.56,3.56,0,0,1,1.08-.93C664.16,217.09,663.86,216.31,663.86,216.31Z"/><path class="cls-22" d="M664.23,229s-2.65-1.41-3.32-3.33a1.33,1.33,0,0,1,1.18-.33S663.46,227.86,664.23,229Z"/><path class="cls-22" d="M666.31,225.32s-.68,1.43-1.3,2.52a4.49,4.49,0,0,1-.78,1.17s2.84-2.19,3-3.05C667.28,226,667.25,225.34,666.31,225.32Z"/><path class="cls-25" d="M663.86,216.54a.71.71,0,0,0,.08.15.62.62,0,0,0,.56.3c.48,0,3.78-.66,4.33,2.43s-1.65,3.73-2.52,5.3-2.46,5.42.08,5.48,2.91-1.16,2.41-3.14-.69-2.42-.17-4,2.28-4.08-.21-6.69a3.53,3.53,0,0,0-4.66-.72"/><path class="cls-26" d="M666.58,225.78s-1,2,0,2.83,1.43-.7,1.43-.7-.07,1.94-1.56,1S666.58,225.78,666.58,225.78Z"/><path class="cls-33" d="M661.65,221.45a4.06,4.06,0,0,1-.3-1.59h-.13l.21,1.4Z"/><path class="cls-25" d="M662.09,218.56a14.13,14.13,0,0,0,.17,4.36h-.65a15.77,15.77,0,0,1-.38-3.39C661.34,218.48,662.09,218.56,662.09,218.56Z"/><path class="cls-25" d="M661.47,218.21a3.16,3.16,0,0,0,0,.4h0a4.21,4.21,0,0,0,.32,1.6c.05.15.12.29.19.43a1.59,1.59,0,0,0,.26.44.54.54,0,0,0,.46.18,1.18,1.18,0,0,1-.42-.81,4,4,0,0,1,0-1.41c.09-.23.18-.46.26-.65l.08-.18h-1.17Z"/><path class="cls-25" d="M663.65,217.33a2.87,2.87,0,0,0-1.42,2.53l-.25-.25.21-1.41.75-.87Z"/><path class="cls-4" d="M661.59,218.33a.79.79,0,0,0-.09,1.57l.35-1.51A.78.78,0,0,0,661.59,218.33Z"/><path d="M686.91,261.46a.66.66,0,0,1-.1.14,2.26,2.26,0,0,0,.65-.07,2.63,2.63,0,0,0,.57-.2,1.81,1.81,0,0,1-.3-.17C687.34,260.89,687.08,261.14,686.91,261.46Z"/><path class="cls-5" d="M687.45,261.53a2.26,2.26,0,0,1-.65.07.72.72,0,0,1-.44.2,1.71,1.71,0,0,0,.89.12,1.89,1.89,0,0,0,1.13-.46,2,2,0,0,1-.36-.13A2.63,2.63,0,0,1,687.45,261.53Z"/><path class="cls-21" d="M669.94,261.52a.91.91,0,0,1-.84-.68.86.86,0,0,0,0,.35.92.92,0,0,0,.83.64,1.09,1.09,0,0,0,.92-1.06C670.76,261.06,670.44,261.57,669.94,261.52Z"/></svg>