<svg id="Buildings_Middle" data-name="Buildings Middle" xmlns="http://www.w3.org/2000/svg" viewBox="0 0 1504.14 309.39"><defs><style>.cls-1{fill:#9ae4f7;}.cls-2{fill:#2fbece;}.cls-3{fill:#69dce8;}.cls-4{fill:#2ba0e2;}.cls-5{fill:#cff5f9;}.cls-6{fill:#fff;}.cls-7{fill:#48cbef;}.cls-8{fill:#43c4e7;}.cls-9{fill:#9deafc;}.cls-10{fill:#e2f1f7;}.cls-11{fill:#b4f6f9;}.cls-12{fill:#dbfafc;}.cls-13{fill:#88e4f9;}.cls-14{fill:#1fc2e8;}.cls-15{fill:#78e3f4;}.cls-16{fill:#39bad8;}.cls-17{fill:#b7eef4;}.cls-18{fill:#84e5f6;}.cls-19{fill:#43c1e4;}.cls-20{fill:#62ddf9;}.cls-21{fill:#72d6ed;}.cls-22{fill:#4ebaea;}.cls-23{fill:#76d3f4;}.cls-24{fill:#32b1d5;}.cls-25{fill:#55d7f6;}.cls-26{fill:#00b2f1;}.cls-27{fill:#3f93ce;}.cls-28{fill:#aaf5f9;}.cls-29{fill:#5ae5e5;}.cls-30{fill:#8ce5e5;}.cls-31{fill:#1fb6e8;}.cls-32{fill:#a2e1f4;}.cls-33{fill:#def4f9;}.cls-34{fill:#baebf7;}.cls-35{fill:#89dbef;}.cls-36{fill:#5fd2ed;}.cls-37{fill:#42c6ea;}.cls-38{fill:#20bee2;}.cls-39{fill:#07bce5;}.cls-40{fill:#42dbf4;}.cls-41{fill:#87e8f9;}.cls-42{fill:#62d8f4;}.cls-43{fill:#57cadd;}.cls-44{fill:#7cdee8;}.cls-45{fill:#cef3f4;}.cls-46{fill:#bef1f4;}.cls-47{fill:#8feaf9;}.cls-48{fill:#3adeef;}.cls-49{fill:#20d7e0;}.cls-50{fill:#18d3d3;}.cls-51{fill:#d2f8fc;}.cls-52{fill:#7fdef7;}.cls-53{fill:#9feffc;}.cls-54{fill:#7ae3fc;}.cls-55{fill:#78cfff;}.cls-56{fill:#73d0f9;}</style></defs><title>Via_Homepage_Illustration_100416_Buildings_Middle</title><polygon class="cls-1" points="183.39 161.81 183.39 155.32 176.67 155.32 176.67 148.96 169.96 148.96 169.96 155.32 169.96 161.81 169.96 255.68 196.82 255.68 196.82 161.81 183.39 161.81"/><rect class="cls-2" x="183.83" y="167.73" width="62.54" height="87"/><rect class="cls-3" x="194.08" y="173.99" width="18.41" height="5.03"/><rect class="cls-3" x="217.7" y="173.99" width="18.41" height="5.03"/><rect class="cls-3" x="194.08" y="183.17" width="18.41" height="5.03"/><rect class="cls-3" x="217.7" y="183.17" width="18.41" height="5.03"/><rect class="cls-3" x="194.08" y="192.94" width="18.41" height="5.03"/><rect class="cls-3" x="217.7" y="192.94" width="18.41" height="5.03"/><polygon class="cls-4" points="1406.23 165.66 1406.23 160.43 1374.98 160.43 1374.98 165.66 1363.84 165.66 1363.84 254.74 1417.47 254.74 1417.47 165.66 1406.23 165.66"/><rect class="cls-5" x="90.76" y="143.5" width="38.87" height="111.23"/><rect class="cls-6" x="94.76" y="148.4" width="31.33" height="1.6"/><rect class="cls-6" x="94.76" y="153.57" width="31.33" height="1.6"/><rect class="cls-6" x="94.76" y="159.21" width="31.33" height="1.6"/><rect class="cls-6" x="94.76" y="164.38" width="31.33" height="1.6"/><rect class="cls-6" x="94.76" y="170.02" width="31.33" height="1.6"/><rect class="cls-6" x="94.76" y="175.19" width="31.33" height="1.6"/><rect class="cls-6" x="94.76" y="181.11" width="31.33" height="1.6"/><rect class="cls-6" x="94.76" y="186.27" width="31.33" height="1.6"/><rect class="cls-6" x="94.76" y="191.92" width="31.33" height="1.6"/><rect class="cls-6" x="94.76" y="197.09" width="31.33" height="1.6"/><rect class="cls-7" x="1469.15" y="208.45" width="34.99" height="46.29"/><rect class="cls-8" x="274.07" y="162.89" width="34.47" height="91.85"/><rect class="cls-9" x="274.07" y="162.12" width="34.47" height="5.69"/><circle class="cls-9" cx="281.68" cy="176.64" r="2.91"/><rect class="cls-9" x="278.77" y="176.64" width="5.82" height="6.71"/><circle class="cls-9" cx="291.75" cy="176.64" r="2.91"/><rect class="cls-9" x="288.84" y="176.64" width="5.82" height="6.71"/><circle class="cls-9" cx="301.54" cy="176.64" r="2.91"/><rect class="cls-9" x="298.63" y="176.64" width="5.82" height="6.71"/><circle class="cls-9" cx="281.68" cy="189.75" r="2.91"/><rect class="cls-9" x="278.77" y="189.75" width="5.82" height="6.71"/><circle class="cls-9" cx="291.75" cy="189.75" r="2.91"/><rect class="cls-9" x="288.84" y="189.75" width="5.82" height="6.71"/><circle class="cls-9" cx="301.54" cy="189.75" r="2.91"/><rect class="cls-9" x="298.63" y="189.75" width="5.82" height="6.71"/><circle class="cls-9" cx="281.68" cy="203.37" r="2.91"/><rect class="cls-9" x="278.77" y="203.37" width="5.82" height="6.71"/><circle class="cls-9" cx="291.75" cy="203.37" r="2.91"/><rect class="cls-9" x="288.84" y="203.37" width="5.82" height="6.71"/><circle class="cls-9" cx="301.54" cy="203.37" r="2.91"/><rect class="cls-9" x="298.63" y="203.37" width="5.82" height="6.71"/><circle class="cls-9" cx="299.92" cy="244.3" r="4.53"/><rect class="cls-9" x="295.39" y="244.3" width="9.05" height="10.43"/><polygon class="cls-10" points="274.07 156.64 300.7 156.64 308.53 162.12 274.07 162.12 274.07 156.64"/><rect class="cls-3" x="243.26" y="148.18" width="31.85" height="106.56"/><polygon class="cls-5" points="750.51 141.72 750.51 255.68 747.15 255.68 747.15 144.83 750.51 141.72"/><rect class="cls-11" x="717.44" y="144.83" width="29.71" height="109.91"/><polygon class="cls-12" points="722.08 141.72 717.44 144.83 747.15 144.83 750.51 141.72 722.08 141.72"/><rect class="cls-13" x="721.3" y="149.11" width="21.99" height="2.7"/><rect class="cls-13" x="721.3" y="155.64" width="21.99" height="2.7"/><rect class="cls-13" x="721.3" y="162.18" width="21.99" height="2.7"/><rect class="cls-13" x="721.3" y="168.71" width="21.99" height="2.7"/><rect class="cls-13" x="721.3" y="174.07" width="21.99" height="2.7"/><rect class="cls-13" x="721.3" y="180.6" width="21.99" height="2.7"/><rect class="cls-13" x="721.3" y="187.14" width="21.99" height="2.7"/><rect class="cls-13" x="721.3" y="193.67" width="21.99" height="2.7"/><rect class="cls-14" x="439.99" y="195.76" width="43.83" height="58.97"/><rect class="cls-7" x="439.99" y="195.76" width="43.83" height="3.98"/><rect class="cls-7" x="991.98" y="189.07" width="52.02" height="65.66" transform="translate(2035.97 443.81) rotate(-180)"/><path class="cls-15" d="M994.76,201h13s-2-6.57-6.51-6.57S994.76,201,994.76,201Z"/><path class="cls-15" d="M1010.45,201h13s-2-6.57-6.51-6.57S1010.45,201,1010.45,201Z"/><path class="cls-15" d="M1026.25,201h13s-2-6.57-6.51-6.57S1026.25,201,1026.25,201Z"/><path class="cls-15" d="M994.76,211h13s-2-6.57-6.51-6.57S994.76,211,994.76,211Z"/><path class="cls-15" d="M1010.45,211h13s-2-6.57-6.51-6.57S1010.45,211,1010.45,211Z"/><path class="cls-15" d="M1026.25,211h13s-2-6.57-6.51-6.57S1026.25,211,1026.25,211Z"/><polygon class="cls-15" points="1049.17 185.47 1043.99 189.07 991.98 189.07 999.66 185.47 1049.17 185.47"/><polygon class="cls-16" points="1043.99 254.74 1043.99 189.08 1049.17 185.47 1049.17 254.74 1043.99 254.74"/><polygon class="cls-17" points="636.39 139.57 650.17 176.13 668.19 163.53 636.39 139.57"/><polygon class="cls-18" points="636.39 139.57 636.39 254.74 649.76 254.74 650.17 176.13 636.39 139.57"/><polygon class="cls-19" points="668.19 163.53 668.19 254.74 649.76 254.74 650.17 176.13 668.19 163.53"/><rect class="cls-18" x="861.28" y="142.24" width="35.27" height="112.49"/><polygon class="cls-19" points="896.55 254.74 905.33 254.74 905.33 136.84 896.55 142.24 896.55 254.74"/><polygon class="cls-3" points="905.33 136.84 869.79 136.84 861.28 142.24 896.55 142.24 905.33 136.84"/><rect class="cls-5" x="821.2" y="176.89" width="40.08" height="77.85"/><polygon class="cls-20" points="861.28 170.44 829.32 170.44 821.2 176.89 861.28 176.89 861.28 170.44"/><rect class="cls-21" x="825.47" y="181.16" width="3.98" height="3.98"/><rect class="cls-21" x="832.15" y="181.16" width="3.98" height="3.98"/><rect class="cls-21" x="839.19" y="181.16" width="3.98" height="3.98"/><rect class="cls-21" x="845.88" y="181.16" width="3.98" height="3.98"/><rect class="cls-21" x="852.25" y="181.16" width="3.98" height="3.98"/><rect class="cls-21" x="825.47" y="187.68" width="3.98" height="3.98"/><rect class="cls-21" x="832.15" y="187.68" width="3.98" height="3.98"/><rect class="cls-21" x="839.19" y="187.68" width="3.98" height="3.98"/><rect class="cls-21" x="845.88" y="187.68" width="3.98" height="3.98"/><rect class="cls-21" x="852.25" y="187.68" width="3.98" height="3.98"/><rect class="cls-21" x="825.47" y="194.13" width="3.98" height="3.98"/><rect class="cls-21" x="832.15" y="194.13" width="3.98" height="3.98"/><rect class="cls-21" x="839.19" y="194.13" width="3.98" height="3.98"/><rect class="cls-21" x="845.88" y="194.13" width="3.98" height="3.98"/><rect class="cls-21" x="852.25" y="194.13" width="3.98" height="3.98"/><rect class="cls-21" x="825.47" y="200.89" width="3.98" height="3.98"/><rect class="cls-21" x="832.15" y="200.89" width="3.98" height="3.98"/><rect class="cls-21" x="839.19" y="200.89" width="3.98" height="3.98"/><rect class="cls-21" x="845.88" y="200.89" width="3.98" height="3.98"/><rect class="cls-21" x="852.25" y="200.89" width="3.98" height="3.98"/><rect class="cls-21" x="825.47" y="207.41" width="3.98" height="3.98"/><rect class="cls-21" x="832.15" y="207.41" width="3.98" height="3.98"/><rect class="cls-21" x="839.19" y="207.41" width="3.98" height="3.98"/><rect class="cls-21" x="845.88" y="207.41" width="3.98" height="3.98"/><rect class="cls-21" x="852.25" y="207.41" width="3.98" height="3.98"/><rect class="cls-21" x="825.47" y="213.87" width="3.98" height="3.98"/><rect class="cls-21" x="832.15" y="213.87" width="3.98" height="3.98"/><rect class="cls-21" x="839.19" y="213.87" width="3.98" height="3.98"/><rect class="cls-21" x="845.88" y="213.87" width="3.98" height="3.98"/><rect class="cls-21" x="852.25" y="213.87" width="3.98" height="3.98"/><path class="cls-5" d="M879.77,149.59a12,12,0,0,0-12,12h24A12,12,0,0,0,879.77,149.59Z"/><rect class="cls-18" x="879.21" y="148.58" width="1.12" height="14.81"/><rect class="cls-18" x="883.75" y="148.58" width="1.12" height="14.81"/><rect class="cls-18" x="879.21" y="143.64" width="1.12" height="28.8" rx="0.49" ry="0.49" transform="translate(1037.81 -721.72) rotate(90)"/><rect class="cls-18" x="879.21" y="139.53" width="1.12" height="28.8" rx="0.49" ry="0.49" transform="translate(1033.7 -725.84) rotate(90)"/><rect class="cls-18" x="888.14" y="148.58" width="1.12" height="14.81"/><rect class="cls-18" x="870.28" y="148.58" width="1.12" height="14.81"/><rect class="cls-18" x="874.68" y="148.58" width="1.12" height="14.81"/><rect class="cls-5" x="867.76" y="165.56" width="24.01" height="3.11"/><rect class="cls-5" x="867.76" y="172.17" width="24.01" height="3.11"/><rect class="cls-5" x="867.76" y="178.85" width="24.01" height="3.11"/><rect class="cls-5" x="867.76" y="185.47" width="24.01" height="3.11"/><rect class="cls-4" x="961.98" y="160.82" width="30" height="93.81"/><rect class="cls-22" x="966.41" y="150.23" width="21.18" height="21.18" transform="translate(399.87 -643.74) rotate(45)"/><polygon class="cls-23" points="977 175.8 977 254.74 991.98 254.74 991.98 160.82 977 175.8"/><rect class="cls-24" x="492.71" y="203.06" width="47.4" height="51.67"/><rect class="cls-25" x="496.99" y="209.41" width="4.77" height="7.16"/><circle class="cls-25" cx="499.37" cy="209.41" r="2.39"/><rect class="cls-25" x="505.24" y="209.41" width="4.77" height="7.16"/><circle class="cls-25" cx="507.63" cy="209.41" r="2.39"/><rect class="cls-25" x="513.65" y="209.41" width="4.77" height="7.16"/><circle class="cls-25" cx="516.04" cy="209.41" r="2.39"/><rect class="cls-25" x="530.32" y="209.41" width="4.77" height="7.16"/><circle class="cls-25" cx="532.7" cy="209.41" r="2.39"/><rect class="cls-25" x="521.91" y="209.41" width="4.77" height="7.16"/><circle class="cls-25" cx="524.29" cy="209.41" r="2.39"/><rect class="cls-25" x="496.99" y="222.95" width="4.77" height="7.16"/><circle class="cls-25" cx="499.37" cy="222.95" r="2.39"/><rect class="cls-25" x="505.24" y="222.95" width="4.77" height="7.16"/><circle class="cls-25" cx="507.63" cy="222.95" r="2.39"/><rect class="cls-25" x="513.65" y="222.95" width="4.77" height="7.16"/><circle class="cls-25" cx="516.04" cy="222.95" r="2.39"/><rect class="cls-25" x="530.32" y="222.95" width="4.77" height="7.16"/><circle class="cls-25" cx="532.7" cy="222.95" r="2.39"/><rect class="cls-25" x="521.91" y="222.95" width="4.77" height="7.16"/><circle class="cls-25" cx="524.29" cy="222.95" r="2.39"/><rect class="cls-25" x="540.1" y="184.81" width="66.91" height="69.92"/><rect class="cls-26" x="548.68" y="193.68" width="4.85" height="9.83"/><polyline class="cls-26" points="548.68 193.68 551.11 191.05 553.53 193.68"/><rect class="cls-26" x="557.86" y="193.68" width="4.85" height="9.83"/><polyline class="cls-26" points="557.86 193.68 560.29 191.05 562.71 193.68"/><rect class="cls-26" x="585.39" y="193.68" width="4.85" height="9.83"/><polyline class="cls-26" points="585.39 193.68 587.81 191.05 590.24 193.68"/><rect class="cls-26" x="594.47" y="193.68" width="4.85" height="9.83"/><polyline class="cls-26" points="594.47 193.68 596.89 191.05 599.32 193.68"/><rect class="cls-26" x="567.04" y="193.68" width="4.85" height="9.83"/><polyline class="cls-26" points="567.04 193.68 569.46 191.05 571.89 193.68"/><rect class="cls-26" x="576.21" y="193.68" width="4.85" height="9.83"/><polyline class="cls-26" points="576.21 193.68 578.64 191.05 581.06 193.68"/><rect class="cls-26" x="548.68" y="230.04" width="4.85" height="9.83"/><polyline class="cls-26" points="548.68 230.04 551.11 227.42 553.53 230.04"/><rect class="cls-26" x="557.86" y="230.04" width="4.85" height="9.83"/><polyline class="cls-26" points="557.86 230.04 560.29 227.42 562.71 230.04"/><rect class="cls-26" x="585.39" y="230.04" width="4.85" height="9.83"/><polyline class="cls-26" points="585.39 230.04 587.81 227.42 590.24 230.04"/><rect class="cls-26" x="594.47" y="230.04" width="4.85" height="9.83"/><polyline class="cls-26" points="594.47 230.04 596.89 227.42 599.32 230.04"/><rect class="cls-26" x="567.04" y="230.04" width="4.85" height="9.83"/><polyline class="cls-26" points="567.04 230.04 569.46 227.42 571.89 230.04"/><rect class="cls-26" x="576.21" y="230.04" width="4.85" height="9.83"/><polyline class="cls-26" points="576.21 230.04 578.64 227.42 581.06 230.04"/><rect class="cls-26" x="548.68" y="211.81" width="4.85" height="9.83"/><polyline class="cls-26" points="548.68 211.81 551.11 209.18 553.53 211.81"/><rect class="cls-26" x="557.86" y="211.81" width="4.85" height="9.83"/><polyline class="cls-26" points="557.86 211.81 560.29 209.18 562.71 211.81"/><rect class="cls-26" x="585.39" y="211.81" width="4.85" height="9.83"/><polyline class="cls-26" points="585.39 211.81 587.81 209.18 590.24 211.81"/><rect class="cls-26" x="594.47" y="211.81" width="4.85" height="9.83"/><polyline class="cls-26" points="594.47 211.81 596.89 209.18 599.32 211.81"/><rect class="cls-26" x="567.04" y="211.81" width="4.85" height="9.83"/><polyline class="cls-26" points="567.04 211.81 569.46 209.18 571.89 211.81"/><rect class="cls-26" x="576.21" y="211.81" width="4.85" height="9.83"/><polyline class="cls-26" points="576.21 211.81 578.64 209.18 581.06 211.81"/><polygon class="cls-2" points="540.1 184.81 550.06 179.19 598.83 179.19 607.01 184.81 540.1 184.81"/><polygon class="cls-27" points="492.71 203.06 499.37 198.59 540.11 198.59 540.11 203.06 492.71 203.06"/><rect class="cls-14" x="1065.26" y="199.37" width="41.02" height="55.36"/><rect class="cls-12" x="1069.25" y="203.13" width="33.25" height="2.06"/><rect class="cls-12" x="1069.25" y="208.93" width="33.25" height="2.06"/><rect class="cls-12" x="1069.25" y="215" width="33.25" height="2.06"/><rect class="cls-12" x="1069.25" y="220.79" width="33.25" height="2.06"/><rect class="cls-12" x="1069.25" y="225.87" width="33.25" height="2.06"/><rect class="cls-12" x="1069.25" y="231.66" width="33.25" height="2.06"/><rect class="cls-28" x="1165.81" y="178.61" width="42.86" height="76.13"/><polygon class="cls-29" points="1173.14 172.69 1165.81 178.61 1208.66 178.61 1213.51 173.57 1173.14 172.69"/><polygon class="cls-30" points="1208.66 254.63 1208.66 178.61 1213.51 173.57 1213.51 254.63 1208.66 254.63"/><rect class="cls-21" x="1168.97" y="184.1" width="4.61" height="4.61"/><rect class="cls-21" x="1176.73" y="184.1" width="4.61" height="4.61"/><rect class="cls-21" x="1184.89" y="184.1" width="4.61" height="4.61"/><rect class="cls-21" x="1192.65" y="184.1" width="4.61" height="4.61"/><rect class="cls-21" x="1200.04" y="184.1" width="4.61" height="4.61"/><rect class="cls-21" x="1168.97" y="191.67" width="4.61" height="4.61"/><rect class="cls-21" x="1176.73" y="191.67" width="4.61" height="4.61"/><rect class="cls-21" x="1184.89" y="191.67" width="4.61" height="4.61"/><rect class="cls-21" x="1192.65" y="191.67" width="4.61" height="4.61"/><rect class="cls-21" x="1200.04" y="191.67" width="4.61" height="4.61"/><rect class="cls-21" x="1168.97" y="199.15" width="4.61" height="4.61"/><rect class="cls-21" x="1176.73" y="199.15" width="4.61" height="4.61"/><rect class="cls-21" x="1184.89" y="199.15" width="4.61" height="4.61"/><rect class="cls-21" x="1192.65" y="199.15" width="4.61" height="4.61"/><rect class="cls-21" x="1200.04" y="199.15" width="4.61" height="4.61"/><polygon class="cls-31" points="1139.4 254.74 1113.49 254.74 1113.49 155.17 1139.4 163.33 1139.4 254.74"/><rect class="cls-32" x="1121.8" y="188.11" width="44.01" height="66.62"/><polygon class="cls-33" points="1115.27 159.72 1115.27 162.71 1129.4 162.71 1115.27 159.72"/><rect class="cls-34" x="1115.27" y="164.85" width="21.86" height="2.8"/><rect class="cls-35" x="1115.27" y="169.78" width="21.86" height="2.8"/><rect class="cls-36" x="1115.27" y="174.71" width="21.86" height="2.8"/><rect class="cls-37" x="1115.27" y="179.84" width="21.86" height="2.8"/><ellipse class="cls-37" cx="1128.84" cy="198.33" rx="2.65" ry="2.56"/><rect class="cls-37" x="1126.19" y="198.33" width="5.29" height="6.44"/><ellipse class="cls-37" cx="1138.95" cy="198.33" rx="2.65" ry="2.56"/><rect class="cls-37" x="1136.31" y="198.33" width="5.29" height="6.44"/><ellipse class="cls-37" cx="1148.88" cy="198.33" rx="2.65" ry="2.56"/><rect class="cls-37" x="1146.23" y="198.33" width="5.29" height="6.44"/><ellipse class="cls-37" cx="1158.99" cy="198.33" rx="2.65" ry="2.56"/><rect class="cls-37" x="1156.34" y="198.33" width="5.29" height="6.44"/><ellipse class="cls-38" cx="1128.84" cy="211.02" rx="2.65" ry="2.56"/><rect class="cls-38" x="1126.19" y="211.02" width="5.29" height="6.44"/><ellipse class="cls-38" cx="1138.95" cy="211.02" rx="2.65" ry="2.56"/><rect class="cls-38" x="1136.31" y="211.02" width="5.29" height="6.44"/><ellipse class="cls-38" cx="1148.88" cy="211.02" rx="2.65" ry="2.56"/><rect class="cls-38" x="1146.23" y="211.02" width="5.29" height="6.44"/><ellipse class="cls-38" cx="1158.99" cy="211.02" rx="2.65" ry="2.56"/><rect class="cls-38" x="1156.34" y="211.02" width="5.29" height="6.44"/><ellipse class="cls-39" cx="1128.84" cy="225.04" rx="2.65" ry="2.56"/><rect class="cls-39" x="1126.19" y="225.04" width="5.29" height="6.44"/><ellipse class="cls-39" cx="1138.95" cy="225.04" rx="2.65" ry="2.56"/><rect class="cls-39" x="1136.31" y="225.04" width="5.29" height="6.44"/><ellipse class="cls-39" cx="1148.88" cy="225.04" rx="2.65" ry="2.56"/><rect class="cls-39" x="1146.23" y="225.04" width="5.29" height="6.44"/><ellipse class="cls-39" cx="1158.99" cy="225.04" rx="2.65" ry="2.56"/><rect class="cls-39" x="1156.34" y="225.04" width="5.29" height="6.44"/><rect class="cls-40" x="1121.8" y="187.89" width="44.01" height="2.78"/><rect class="cls-32" x="379.46" y="185.18" width="45.95" height="69.45"/><rect class="cls-8" x="1217.74" y="182.81" width="32.4" height="71.92"/><rect class="cls-41" x="1217.74" y="182.81" width="32.4" height="3.71"/><rect class="cls-42" x="1217.74" y="197.86" width="32.4" height="3.71"/><rect class="cls-43" x="1217.74" y="216.41" width="32.4" height="3.71"/><path class="cls-42" d="M1219.66,194.8h8s-.42-6.17-4-6.17S1219.66,194.8,1219.66,194.8Z"/><path class="cls-42" d="M1230.65,194.8h8s-.42-6.17-4-6.17S1230.65,194.8,1230.65,194.8Z"/><path class="cls-42" d="M1240.87,194.8h8s-.42-6.17-4-6.17S1240.87,194.8,1240.87,194.8Z"/><path class="cls-44" d="M1219.66,210.71h8s-.42-6.17-4-6.17S1219.66,210.71,1219.66,210.71Z"/><path class="cls-44" d="M1230.65,210.71h8s-.42-6.17-4-6.17S1230.65,210.71,1230.65,210.71Z"/><path class="cls-44" d="M1240.87,210.71h8s-.42-6.17-4-6.17S1240.87,210.71,1240.87,210.71Z"/><polygon class="cls-45" points="1217.74 182.81 1225.56 177.69 1250.13 177.69 1250.13 182.81 1217.74 182.81"/><rect class="cls-46" x="235.62" y="203.33" width="48.85" height="51.41"/><rect class="cls-32" x="235.62" y="203.33" width="48.85" height="4.6"/><rect class="cls-32" x="238.2" y="211.13" width="3.46" height="6.31"/><rect class="cls-32" x="244.86" y="211.13" width="3.46" height="6.31"/><rect class="cls-32" x="251.51" y="211.13" width="3.46" height="6.31"/><rect class="cls-32" x="258.17" y="211.13" width="3.46" height="6.31"/><rect class="cls-32" x="265" y="211.13" width="3.46" height="6.31"/><rect class="cls-32" x="277.96" y="211.13" width="3.46" height="6.31"/><rect class="cls-32" x="271.65" y="211.13" width="3.46" height="6.31"/><rect class="cls-32" x="238.2" y="219.77" width="3.46" height="6.31"/><rect class="cls-32" x="244.86" y="219.77" width="3.46" height="6.31"/><rect class="cls-32" x="251.51" y="219.77" width="3.46" height="6.31"/><rect class="cls-32" x="258.17" y="219.77" width="3.46" height="6.31"/><rect class="cls-32" x="265" y="219.77" width="3.46" height="6.31"/><rect class="cls-32" x="277.96" y="219.77" width="3.46" height="6.31"/><rect class="cls-32" x="271.65" y="219.77" width="3.46" height="6.31"/><ellipse class="cls-37" cx="386.81" cy="195.85" rx="2.76" ry="2.68"/><rect class="cls-37" x="384.05" y="195.85" width="5.52" height="6.72"/><ellipse class="cls-37" cx="397.37" cy="195.85" rx="2.76" ry="2.68"/><rect class="cls-37" x="394.6" y="195.85" width="5.52" height="6.72"/><ellipse class="cls-37" cx="407.73" cy="195.85" rx="2.76" ry="2.68"/><rect class="cls-37" x="404.96" y="195.85" width="5.52" height="6.72"/><ellipse class="cls-37" cx="418.28" cy="195.85" rx="2.76" ry="2.68"/><rect class="cls-37" x="415.52" y="195.85" width="5.52" height="6.72"/><ellipse class="cls-38" cx="386.81" cy="209.09" rx="2.76" ry="2.68"/><rect class="cls-38" x="384.05" y="209.09" width="5.52" height="6.72"/><ellipse class="cls-38" cx="397.37" cy="209.09" rx="2.76" ry="2.68"/><rect class="cls-38" x="394.6" y="209.09" width="5.52" height="6.72"/><ellipse class="cls-38" cx="407.73" cy="209.09" rx="2.76" ry="2.68"/><rect class="cls-38" x="404.96" y="209.09" width="5.52" height="6.72"/><ellipse class="cls-38" cx="418.28" cy="209.09" rx="2.76" ry="2.68"/><rect class="cls-38" x="415.52" y="209.09" width="5.52" height="6.72"/><ellipse class="cls-39" cx="386.81" cy="223.73" rx="2.76" ry="2.68"/><rect class="cls-39" x="384.05" y="223.73" width="5.52" height="6.72"/><ellipse class="cls-39" cx="397.37" cy="223.73" rx="2.76" ry="2.68"/><rect class="cls-39" x="394.6" y="223.73" width="5.52" height="6.72"/><ellipse class="cls-39" cx="407.73" cy="223.73" rx="2.76" ry="2.68"/><rect class="cls-39" x="404.96" y="223.73" width="5.52" height="6.72"/><ellipse class="cls-39" cx="418.28" cy="223.73" rx="2.76" ry="2.68"/><rect class="cls-39" x="415.52" y="223.73" width="5.52" height="6.72"/><rect class="cls-40" x="379.46" y="184.95" width="45.95" height="2.91"/><rect class="cls-47" x="1425.02" y="192.8" width="44.13" height="61.93"/><polygon class="cls-47" points="1434.05 179.72 1430.31 183.46 1430.31 188.98 1430.31 190.93 1430.31 199.31 1431.19 199.31 1431.19 190.93 1436.9 190.93 1436.9 199.31 1437.79 199.31 1437.79 190.93 1437.79 188.98 1437.79 183.46 1434.05 179.72"/><path class="cls-48" d="M1434.6,197.36a4.67,4.67,0,0,0-4.67,4.67h9.34A4.67,4.67,0,0,0,1434.6,197.36Z"/><path class="cls-48" d="M1447.42,197.36a4.67,4.67,0,0,0-4.67,4.67h9.34A4.67,4.67,0,0,0,1447.42,197.36Z"/><path class="cls-48" d="M1459.57,197.36a4.67,4.67,0,0,0-4.67,4.67h9.34A4.67,4.67,0,0,0,1459.57,197.36Z"/><path class="cls-49" d="M1434.6,206.11a4.67,4.67,0,0,0-4.67,4.67h9.34A4.67,4.67,0,0,0,1434.6,206.11Z"/><path class="cls-49" d="M1447.42,206.11a4.67,4.67,0,0,0-4.67,4.67h9.34A4.67,4.67,0,0,0,1447.42,206.11Z"/><path class="cls-49" d="M1459.57,206.11a4.67,4.67,0,0,0-4.67,4.67h9.34A4.67,4.67,0,0,0,1459.57,206.11Z"/><path class="cls-50" d="M1434.6,214.67a4.67,4.67,0,0,0-4.67,4.67h9.34A4.67,4.67,0,0,0,1434.6,214.67Z"/><path class="cls-50" d="M1447.42,214.67a4.67,4.67,0,0,0-4.67,4.67h9.34A4.67,4.67,0,0,0,1447.42,214.67Z"/><path class="cls-50" d="M1459.57,214.67a4.67,4.67,0,0,0-4.67,4.67h9.34A4.67,4.67,0,0,0,1459.57,214.67Z"/><rect class="cls-51" x="1250.13" y="162.05" width="20.53" height="92.68"/><rect class="cls-52" x="1255.06" y="167.29" width="10.67" height="1.84"/><rect class="cls-52" x="1255.06" y="174.06" width="10.67" height="1.84"/><rect class="cls-52" x="1255.06" y="180.82" width="10.67" height="1.84"/><rect class="cls-52" x="1255.06" y="187.58" width="10.67" height="1.84"/><rect class="cls-52" x="1255.06" y="194.34" width="10.67" height="1.84"/><rect class="cls-52" x="1255.06" y="199.91" width="10.67" height="1.84"/><rect class="cls-52" x="1255.06" y="206.68" width="10.67" height="1.84"/><rect class="cls-52" x="1255.06" y="213.44" width="10.67" height="1.84"/><rect class="cls-52" x="1255.06" y="220.2" width="10.67" height="1.84"/><rect class="cls-52" x="1255.06" y="226.96" width="10.67" height="1.84"/><rect class="cls-52" x="1255.06" y="233.72" width="10.67" height="1.84"/><rect class="cls-52" x="1255.06" y="240.49" width="10.67" height="1.84"/><rect class="cls-52" x="1255.06" y="247.25" width="10.67" height="1.84"/><rect class="cls-25" x="48.74" y="182.97" width="47.48" height="71.77"/><ellipse class="cls-53" cx="56.34" cy="196.78" rx="2.85" ry="2.77"/><rect class="cls-53" x="53.49" y="196.78" width="5.71" height="6.94"/><ellipse class="cls-53" cx="67.25" cy="196.78" rx="2.85" ry="2.77"/><rect class="cls-53" x="64.4" y="196.78" width="5.71" height="6.94"/><ellipse class="cls-53" cx="77.96" cy="196.78" rx="2.85" ry="2.77"/><rect class="cls-53" x="75.1" y="196.78" width="5.71" height="6.94"/><ellipse class="cls-53" cx="88.87" cy="196.78" rx="2.85" ry="2.77"/><rect class="cls-53" x="86.01" y="196.78" width="5.71" height="6.94"/><ellipse class="cls-53" cx="56.34" cy="211.91" rx="2.85" ry="2.77"/><rect class="cls-53" x="53.49" y="211.91" width="5.71" height="6.94"/><ellipse class="cls-53" cx="67.25" cy="211.91" rx="2.85" ry="2.77"/><rect class="cls-53" x="64.4" y="211.91" width="5.71" height="6.94"/><ellipse class="cls-53" cx="77.96" cy="211.91" rx="2.85" ry="2.77"/><rect class="cls-53" x="75.1" y="211.91" width="5.71" height="6.94"/><ellipse class="cls-53" cx="88.87" cy="211.91" rx="2.85" ry="2.77"/><rect class="cls-53" x="86.01" y="211.91" width="5.71" height="6.94"/><rect class="cls-32" x="48.74" y="182.72" width="47.48" height="3"/><path class="cls-54" d="M1329.19,189.86a12.48,12.48,0,0,0-24.94,0h0v64.87h25V189.86Z"/><rect class="cls-14" x="1329.29" y="206.86" width="71.51" height="47.88"/><rect class="cls-55" x="1310.03" y="193.77" width="13.38" height="5.12"/><rect class="cls-55" x="1310.03" y="203.06" width="13.38" height="5.12"/><rect class="cls-55" x="1310.03" y="212.35" width="13.38" height="5.12"/><rect class="cls-55" x="1310.03" y="221.64" width="13.38" height="5.12"/><rect class="cls-2" x="1352.77" y="212.39" width="43" height="3.37"/><rect class="cls-49" x="1362.59" y="218.24" width="33.18" height="3.37"/><rect class="cls-47" x="1372.68" y="224.58" width="23.09" height="3.37"/><rect class="cls-28" x="1382.77" y="231.02" width="13" height="3.37"/><rect class="cls-56" x="1368.28" y="170.66" width="2.7" height="8.43"/><rect class="cls-56" x="1375.2" y="170.66" width="2.7" height="8.43"/><rect class="cls-56" x="1382.27" y="170.66" width="2.7" height="8.43"/><rect class="cls-56" x="1389.19" y="170.66" width="2.7" height="8.43"/><rect class="cls-56" x="1396.34" y="170.66" width="2.7" height="8.43"/><rect class="cls-56" x="1403.25" y="170.66" width="2.7" height="8.43"/><rect class="cls-56" x="1410.33" y="170.66" width="2.7" height="8.43"/><rect class="cls-56" x="1368.28" y="185.7" width="2.7" height="8.43"/><rect class="cls-56" x="1375.2" y="185.7" width="2.7" height="8.43"/><rect class="cls-56" x="1382.27" y="185.7" width="2.7" height="8.43"/><rect class="cls-56" x="1389.19" y="185.7" width="2.7" height="8.43"/><rect class="cls-56" x="1396.34" y="185.7" width="2.7" height="8.43"/><rect class="cls-56" x="1403.25" y="185.7" width="2.7" height="8.43"/><rect class="cls-56" x="1410.33" y="185.7" width="2.7" height="8.43"/><rect class="cls-3" x="254.06" y="143.05" width="10.25" height="10.25" transform="translate(337.68 436.22) rotate(-135)"/></svg>