<svg id="Car" xmlns="http://www.w3.org/2000/svg" viewBox="0 0 1504.14 309.39"><defs><style>.cls-1{fill:#808083;}.cls-2{fill:#231f20;}.cls-3{fill:#7f0a1b;}.cls-4{fill:#df9d3f;}.cls-5{fill:#efb04d;}.cls-6{fill:#372012;}.cls-7{fill:#9b1321;}.cls-8{fill:#9a9c9e;}.cls-9{fill:#6d6e71;}.cls-10{fill:#d89741;}.cls-11{fill:#ff5576;}.cls-12{fill:#7a4f32;}.cls-13{fill:#8a5e3c;}.cls-14{fill:#fff;}.cls-15{fill:#f0f1f1;}.cls-16{fill:#eb008b;}.cls-17{fill:none;}.cls-18{fill:#f2cea5;}.cls-19{fill:#203582;}.cls-20{fill:#dfbb99;}.cls-21{fill:#2a3a8a;}.cls-22{fill:#603a17;}.cls-23{fill:#edb681;}.cls-24{fill:#282560;}.cls-25{fill:#333;}.cls-26{fill:#1a1a1a;}</style></defs><title>Via_Homepage_Illustration_100416_Car</title><polygon class="cls-1" points="772.52 223.37 769.53 238.64 737.45 238.64 740.28 234.65 750.89 227.02 757.57 224.77 765.45 224.46 772.52 223.37"/><rect class="cls-1" x="772.52" y="223.66" width="32.09" height="15.28"/><path class="cls-2" d="M792.09,232.63s-.3.84-.78,1a2.47,2.47,0,0,0,2,.48l.26-1.57Z"/><path class="cls-3" d="M792.67,235.07s-.31.27-.4.27l.31.21Z"/><path class="cls-4" d="M795.06,230.58s.56,5.72.23,6.34-4.17.4-4.17.4a6.5,6.5,0,0,0,1.07-1.5,7,7,0,0,0,.85-2.37C793.14,231.78,795.06,230.58,795.06,230.58Z"/><path class="cls-5" d="M795.21,226.42a5.66,5.66,0,0,0-3.14,1c-.24.2-.83,0-.95.31a7,7,0,0,0-.41,4.07,1.64,1.64,0,0,0,1,1.31c.6.32,2.89.3,4.84-1.14S797,226.77,795.21,226.42Z"/><circle class="cls-2" cx="793.31" cy="230.34" r="0.3" transform="translate(-16.32 66.35) rotate(-4.74)"/><circle class="cls-2" cx="790.98" cy="229.66" r="0.25" transform="translate(-16.27 66.15) rotate(-4.74)"/><path class="cls-6" d="M793,229.55l0,.16a1.24,1.24,0,0,1,.92.38l.11-.1S793.89,229.55,793,229.55Z"/><path class="cls-7" d="M795.51,241.33a29.19,29.19,0,0,0,.61-4.49,10.15,10.15,0,0,0-.45-2.43s-2.54,1.25-3.4.93c0,0,.07.17-.65.83-1,.9-2.73,1.7-2.73,2.65a3.21,3.21,0,0,0,.7,1.79l-1,5.44,5.05.78A45.69,45.69,0,0,0,795.51,241.33Z"/><path class="cls-2" d="M795.8,226.35s-2-.91-3.31-.06-1.43,1.86-1.91,1.94c0,0,2.28.94,3.62.42,0,0,1,1.35.45,2.17,0,0,.44-.66.77-.65s.23,1.41-.77,1.5c0,0-.22,1.53-1.18,2,0,0,.18,1.18,2.66,1.23a4.61,4.61,0,0,1,.59-3,3.55,3.55,0,0,0,.7-3.75A3.21,3.21,0,0,0,795.8,226.35Z"/><path class="cls-8" d="M799.09,226.51c-1.29,0-1.88,1.69-2.47,4.63a55.67,55.67,0,0,0-.54,7.8,32.2,32.2,0,0,1-1.65,6.51l3,.07,4.19-18.08A6.16,6.16,0,0,0,799.09,226.51Z"/><path class="cls-9" d="M797.45,245.53l1,0L802.57,228s-.39-.27-.93-.58Z"/><ellipse class="cls-10" cx="791.68" cy="230.48" rx="0.34" ry="0.43" transform="translate(433.43 973.13) rotate(-80.48)"/><path class="cls-11" d="M790.88,231.29a2.84,2.84,0,0,0,1.61.24,1.08,1.08,0,0,1-1,.43A.71.71,0,0,1,790.88,231.29Z"/><path class="cls-6" d="M790.74,229.08c0,.06,0,.08,0,.18a.72.72,0,0,1,.65,0l.07-.11A.72.72,0,0,0,790.74,229.08Z"/><path class="cls-1" d="M841.18,237.39h-28a25.42,25.42,0,0,1-3.54-.18c-.65-.26-1.09-1.54-1.09-1.54l-5.1-12.14h25.09s2.93,1,3.21,1.16a10.3,10.3,0,0,1,2.38,1.88C835.76,229,840.32,233.73,841.18,237.39Z"/><path class="cls-2" d="M818.31,232.11a.76.76,0,0,0,.09.42,1.61,1.61,0,0,1-.15,1.41,2.27,2.27,0,0,0-.21.62,3.94,3.94,0,0,0,.07.78,1.32,1.32,0,0,0,.36.68.46.46,0,0,0,.46.14.57.57,0,0,0,.25-.26,10.9,10.9,0,0,0,.89-1.86,1.68,1.68,0,0,0,.12-.43,1.4,1.4,0,0,0-.64-1.16"/><path class="cls-12" d="M822.49,230.23s-.17,5.8-.51,6.42-4.17.4-4.17.4,1.83-2.2,1.92-3.87S822.49,230.23,822.49,230.23Z"/><path class="cls-13" d="M822.07,226.32s-3.58-.26-4.09,1.85-.58,3.08.52,4.51c.84,1.08,3.05.34,4.93-1.25C824.17,230.8,823.27,227.41,822.07,226.32Z"/><circle class="cls-2" cx="819.71" cy="229.97" r="0.3" transform="translate(-16.2 68.53) rotate(-4.74)"/><circle class="cls-2" cx="817.98" cy="229.74" r="0.25" transform="translate(-16.19 68.39) rotate(-4.74)"/><path class="cls-6" d="M819.31,229.25l.06.17a1.34,1.34,0,0,1,1,.22l.1-.08S820.27,229.08,819.31,229.25Z"/><path class="cls-14" d="M819.25,234.94s-2,1.93-2.62,2.62a3.77,3.77,0,0,0-.5,2.9c.2.87-1.62,6.59-1.62,6.59h5.8s2.54-6,2.68-8a42.24,42.24,0,0,0,0-4.47Z"/><path class="cls-15" d="M819.3,234.6a4.29,4.29,0,0,0,2.59-.63c.07-.06.16-.12.24-.07a.19.19,0,0,1,.06.06,1.6,1.6,0,0,1,.17.7.56.56,0,0,1-.12.24.26.26,0,0,1-.1.07,7.21,7.21,0,0,1-1.6.6,2.5,2.5,0,0,1-1.67-.18s-.05,0-.06-.06a.11.11,0,0,1,0-.08,4.62,4.62,0,0,0,.47-.65"/><path class="cls-2" d="M822.06,230.74a1.81,1.81,0,0,0-.36,1.65,3.26,3.26,0,0,1,.15.87,2.35,2.35,0,0,1-.23.55,3.74,3.74,0,0,0-.23,1.46,2.41,2.41,0,0,0,1.37,2.48,1,1,0,0,0,.81-.43,2.78,2.78,0,0,0,.38-.87,46.12,46.12,0,0,0,1.15-4.64c.2-1-.48-2.06-.59-3.08a3.16,3.16,0,0,0-1.89-2.17c-.49-.14,0,1.33,0,1.84v2.31Z"/><path class="cls-9" d="M829.26,227.75s-.45-.31-1.06-.65L824,245.25l1.13,0Z"/><path class="cls-8" d="M825.78,226.23c-1.29,0-1.88,1.69-2.47,4.63a55.68,55.68,0,0,0-.54,7.8,32.2,32.2,0,0,1-1.65,6.51l2.88.07,4.21-18.15A5.88,5.88,0,0,0,825.78,226.23Z"/><ellipse class="cls-12" cx="818.55" cy="230.63" rx="0.36" ry="0.28"/><path class="cls-6" d="M817.75,229.25a.63.63,0,0,0,0,.13.61.61,0,0,1,.39,0l0-.16A.53.53,0,0,0,817.75,229.25Z"/><path class="cls-2" d="M819,227.46a.77.77,0,0,0,.23.41,1.73,1.73,0,0,0,.34.22,6.36,6.36,0,0,1,.84.56,1.74,1.74,0,0,1,.39.4,1.86,1.86,0,0,1,.23.93A2.84,2.84,0,0,1,821,231a1.45,1.45,0,0,0-.1.37.31.31,0,0,0,.17.31.36.36,0,0,1,0-.32c.06-.1.14-.17.2-.26a2,2,0,0,0,.5-1.28c0-.09,0-.19.1-.22a.15.15,0,0,1,.11,0,.52.52,0,0,1,.33.49.73.73,0,0,1-.1.47,1.18,1.18,0,0,1-.19.2,1,1,0,0,0-.22,1.09.47.47,0,0,0,.18.23.23.23,0,0,0,.28,0,.35.35,0,0,0,.06-.09,8.64,8.64,0,0,0,.75-3.11,1.12,1.12,0,0,0,0-.29,1.61,1.61,0,0,0-.27-.54,2,2,0,0,0-.29-.45,1.21,1.21,0,0,0-.5-.25,7.63,7.63,0,0,0-1.27-.28"/><path class="cls-2" d="M819,227.45a.54.54,0,0,1-.18.35,2.84,2.84,0,0,1-.32.24,4.84,4.84,0,0,0-.68.74,2.52,2.52,0,0,1,.69-1.75,1.71,1.71,0,0,1,.23-.21,2,2,0,0,1,.29-.17,5.29,5.29,0,0,1,2.49-.56l.32,0a5.44,5.44,0,0,1,.86.24,3.36,3.36,0,0,1,1.41,1.45c0,.09-.49.44-.54.52s-.08-.46-.12-.43a2.11,2.11,0,0,1-1.35.31.42.42,0,0,1-.15,0c-.17-.07-.18-.31-.3-.44"/><path class="cls-16" d="M819.29,231.15a2.59,2.59,0,0,1-.71.18,1.7,1.7,0,0,1-.6-.06.62.62,0,0,0,.63.34C819.05,231.54,819.09,231.43,819.29,231.15Z"/><polygon class="cls-9" points="703.23 261.48 737.45 261.48 731.18 247.91 711.88 245.15 702.35 257.61 703.23 261.48"/><polygon class="cls-9" points="796.46 262.58 835.92 262.58 829.65 249 805.11 246.24 795.58 258.7 796.46 262.58"/><path class="cls-17" d="M752.78,227.74c-1.2.9-8.71,6.16-8.71,6.16a3.52,3.52,0,0,1,2,.92c.55.75,0,2.55,0,2.55h20.33l1.19-12.1s-4.82.11-9.09.4A8.89,8.89,0,0,0,752.78,227.74Z"/><path class="cls-17" d="M765.12,242h-6.56a.79.79,0,1,0,0,1.58h6.56a.79.79,0,1,0,0-1.58Z"/><polygon class="cls-17" points="776.82 225.28 775.93 237.38 780.02 237.38 780.42 225.28 776.82 225.28"/><path class="cls-18" d="M752.76,229s.49-.84.8-.78.57-.18,1-.48.86-.73,1.13-.73c0,0-.12-.6-1.05-.21A13.59,13.59,0,0,0,756,225.6c.31-.37,0-.51-.25-.36,0,0,.47-.52.25-.73s-.67.27-.67.27.24-.39.08-.47-1.09.65-1.09.65.08-.26-.09-.35-.54.72-.74,1a4.25,4.25,0,0,0-.81,1.53,4.66,4.66,0,0,1-.65,1.33Z"/><path class="cls-19" d="M761.33,237.28s-6.15-.88-7.32-2.89-1.71-3.57-.86-5.68l-1.29-.74a6.45,6.45,0,0,0-.58,6.6,9.65,9.65,0,0,0,8.11,5.12Z"/><path class="cls-20" d="M760.31,233.19a6.75,6.75,0,0,1,1.66,4.54l3-1.69a8.22,8.22,0,0,1-1-3.19Z"/><path class="cls-21" d="M767.1,241.45s-.65-5.9-3.66-5.9-3.75,5.67-3.75,5.67Z"/><path class="cls-22" d="M758.25,228.2s-.44-2.24.5-2.72,1,0,1.74-.09.91-.71,1.63-.51.77.65,1.29.82,1,0,1.5.55.3.77.44,1.08.6.45.58,1,.24.91.24,1.57a12,12,0,0,1-.47,1.8A1.27,1.27,0,0,1,764.4,233C763.32,232.91,758.25,228.2,758.25,228.2Z"/><path class="cls-18" d="M765.12,229.25a1.49,1.49,0,0,0-.47.62l-.48.95c0,.09-.11.19-.2.19s-.19-.12-.21-.23a2,2,0,0,1,.14-.89,2.73,2.73,0,0,0,0-1.61,1.75,1.75,0,0,0-1.11-1.12,2,2,0,0,0-1.28.1,7.63,7.63,0,0,0-1.15.62,1.59,1.59,0,0,1-.65.26.58.58,0,0,1-.59-.29,1.74,1.74,0,0,0-.12-.34.39.39,0,0,0-.34-.14h0a4.09,4.09,0,1,0,6.73,1.77A.87.87,0,0,0,765.12,229.25Z"/><path class="cls-22" d="M763.14,229a2.6,2.6,0,0,0-1.29-.2v.33s.25.21,1.13.14Z"/><path class="cls-22" d="M758.4,228.7l-.12.33s-.6,0-.79,0l.15-.43A1.13,1.13,0,0,1,758.4,228.7Z"/><ellipse class="cls-23" cx="759.84" cy="230.82" rx="0.5" ry="0.38" transform="translate(-27.74 129.05) rotate(-9.53)"/><circle class="cls-24" cx="762.46" cy="230.11" r="0.33"/><circle class="cls-24" cx="757.97" cy="230.16" r="0.29"/><path class="cls-14" d="M761.44,231.67a10.79,10.79,0,0,1-2.38.31,1.15,1.15,0,0,0,.9.61A2.19,2.19,0,0,0,761.44,231.67Z"/><path class="cls-22" d="M759,227.51a1.74,1.74,0,0,1,.12.34.58.58,0,0,0,.59.29,1.59,1.59,0,0,0,.65-.26,7.63,7.63,0,0,1,1.15-.62,2,2,0,0,1,1.28-.1,1.75,1.75,0,0,1,1.11,1.12,2.73,2.73,0,0,1,0,1.61,2,2,0,0,0-.14.89c0,.11.1.23.21.23s.16-.1.2-.19l.48-.95a1.49,1.49,0,0,1,.47-.62.87.87,0,0,1,.24-.1,4.09,4.09,0,0,0-6.73-1.77h0A.39.39,0,0,1,759,227.51Z"/><path class="cls-18" d="M764.25,230.66a3.11,3.11,0,0,0,.28-.67,3.08,3.08,0,0,1,.2-.5.85.85,0,0,1,.61-.4.46.46,0,0,1,.27,0,.52.52,0,0,1,.23.47,2.62,2.62,0,0,1-.25,1,.7.7,0,0,1-.28.4,1.39,1.39,0,0,1-.53,0,.71.71,0,0,0-.56.37"/><path class="cls-22" d="M765.61,230.63c0,.13-.17.21-.28.29a1.79,1.79,0,0,0-.47.58,7.27,7.27,0,0,0-.41.83,1.21,1.21,0,0,0-.13.55.21.21,0,0,0,.07.16.2.2,0,0,0,.1,0,1,1,0,0,0,.52-.15,1.63,1.63,0,0,0,.36-.22,1.08,1.08,0,0,0,.33-.7,2.13,2.13,0,0,0-.09-.78"/><path class="cls-8" d="M768.06,225.73c-1.17,0-1.72,1.69-2.26,4.63a61,61,0,0,0-.49,7.8,34.73,34.73,0,0,1-1.5,6.51l2.76.07,3.82-18.08A5.31,5.31,0,0,0,768.06,225.73Z"/><path class="cls-9" d="M766.57,244.75l.9,0,3.77-17.53s-.35-.27-.85-.58Z"/><path class="cls-25" d="M758.57,242h6.56a.79.79,0,1,1,0,1.58h-6.56a.79.79,0,1,1,0-1.58Z"/><path class="cls-26" d="M847.36,253.46c0-3-1.52-4.36-2-4.55,0,0,.53-6.07-.79-9.5s-6.53-11.62-7.52-13.33a4.66,4.66,0,0,0-4.36-2.64c-2.18-.07-2.24-.59-3.17-1.32s-7.22-1.39-11.57-1.39h-41.3s-5.62-.06-8.1,1.65a5.19,5.19,0,0,1-3.7.92h-6.27a18.46,18.46,0,0,0-8.18,2.44c-4,2.38-10.16,6.86-11,7.52s-2.51,2.77-8.71,3.37-16.65,1.87-22.2,3.45-7.33,2.57-8.51,3.89-2.57,4.47-3.63,7.9-1.19,8.15.59,10c1.37,1.46,5.87,1.55,7.87,1.51.26-7.74,5.77-15.18,13.57-15.18a14.41,14.41,0,0,1,14.41,14.41c0,.46,0,.91-.07,1.35h73.92c0-.45-.07-.9-.07-1.35,0-8,5.62-14.41,13.58-14.41,9.94,0,13.64,7.8,14,15.47h6.25s3.43-.48,5.28-2.09S847.36,256.49,847.36,253.46Zm-82.23-9.91h-6.56a.79.79,0,1,1,0-1.58h6.56a.79.79,0,1,1,0,1.58Zm3.5-6.17H746.11s.55-1.8,0-2.55a3.52,3.52,0,0,0-2-.92s7.51-5.26,8.71-6.16a8.89,8.89,0,0,1,5.76-2.07c4.26-.29,12.52-.4,12.52-.4Zm35.2,0H775.93l.89-12.1h23.49Zm14,0s-6.45,0-6.86-.15c-.57-.23-.95-1.34-.95-1.34l-3.48-10.6h24.36s6.7,8.18,7.62,12.1Z"/><path class="cls-25" d="M796.37,242h6.56a.79.79,0,1,1,0,1.58h-6.56a.79.79,0,1,1,0-1.58Z"/><path class="cls-18" d="M753,228.62s.26-.49.57-.43.57-.18,1-.48.86-.73,1.13-.73c0,0-.12-.6-1.05-.21A13.59,13.59,0,0,0,756,225.6c.31-.37,0-.51-.25-.36,0,0,.47-.52.25-.73s-.67.27-.67.27.24-.39.08-.47-1.09.65-1.09.65.08-.26-.09-.35-.54.72-.74,1a4.25,4.25,0,0,0-.81,1.53,2.37,2.37,0,0,1-.54,1Z"/><path class="cls-19" d="M752.5,228.36l-.91-.53a13,13,0,0,0-.71,2.15C750.85,230.51,752.5,228.36,752.5,228.36Z"/><path class="cls-25" d="M718.24,265.23l0,5.3a7.88,7.88,0,0,1-4.27-1.78l3.72-3.74A2.69,2.69,0,0,0,718.24,265.23Z"/><path class="cls-25" d="M716.36,262.85a2.69,2.69,0,0,0,.28,1l-3.74,3.76a7.88,7.88,0,0,1-1.74-4.49l3.22-.47Z"/><path class="cls-25" d="M720.58,264.88l3.92,3.51a7.89,7.89,0,0,1-4.63,2.14l0-5.29A2.69,2.69,0,0,0,720.58,264.88Z"/><path class="cls-25" d="M721.75,262.8l5.2-.52c0,.12,0,.24,0,.36a7.88,7.88,0,0,1-1.44,4.54l-4-3.55A2.69,2.69,0,0,0,721.75,262.8Z"/><path class="cls-25" d="M719.05,259.94a2.7,2.7,0,0,0-.67.09l-2.44-4.67a7.9,7.9,0,0,1,5.37-.3l-2,4.89Z"/><path class="cls-25" d="M720.74,260.54l2-4.88a7.93,7.93,0,0,1,3.94,5.05l-5.36.54A2.72,2.72,0,0,0,720.74,260.54Z"/><path class="cls-25" d="M716.71,261.29l-5.35-.51a7.92,7.92,0,0,1,3.19-4.66l2.47,4.73A2.71,2.71,0,0,0,716.71,261.29Z"/><path class="cls-25" d="M711.15,262.36l3.23.31-3.22.47c0-.16,0-.32,0-.49S711.14,262.45,711.15,262.36Z"/><path class="cls-26" d="M707.5,262.65c0,.36,0,.71.05,1.06a11.53,11.53,0,1,0-.05-1.06Zm7.05-6.52,2.47,4.73a2.71,2.71,0,0,0-.31.44l-5.35-.51A7.92,7.92,0,0,1,714.56,256.13Zm6.76-1.07-2,4.89h-.22a2.7,2.7,0,0,0-.67.09l-2.44-4.67a7.9,7.9,0,0,1,5.37-.3Zm5.41,5.66-5.36.54a2.72,2.72,0,0,0-.62-.71l2-4.88A7.93,7.93,0,0,1,726.72,260.71Zm.25,1.93a7.88,7.88,0,0,1-1.44,4.54l-4-3.55a2.69,2.69,0,0,0,.18-.84l5.2-.52C727,262.41,727,262.52,727,262.65Zm-2.48,5.74a7.89,7.89,0,0,1-4.63,2.14l0-5.29a2.69,2.69,0,0,0,.76-.36Zm-10.49.36,3.72-3.74a2.69,2.69,0,0,0,.51.22l0,5.3A7.88,7.88,0,0,1,714,268.75Zm-2.85-5.62c0-.16,0-.32,0-.49s0-.19,0-.29l3.23.31,2,.19a2.69,2.69,0,0,0,.28,1l-3.74,3.76A7.88,7.88,0,0,1,711.16,263.14Z"/><path class="cls-25" d="M819.38,265l0,5.3a7.88,7.88,0,0,1-4.27-1.78l3.72-3.74A2.69,2.69,0,0,0,819.38,265Z"/><path class="cls-25" d="M817.78,263.65,814,267.41a7.88,7.88,0,0,1-1.76-5c0-.1,0-.19,0-.29l5.21.5A2.69,2.69,0,0,0,817.78,263.65Z"/><path class="cls-25" d="M821.72,264.67l3.92,3.51a7.88,7.88,0,0,1-4.63,2.14l0-5.29A2.69,2.69,0,0,0,821.72,264.67Z"/><path class="cls-25" d="M817.85,261.08l-5.35-.51a7.92,7.92,0,0,1,3.19-4.66l2.47,4.73A2.71,2.71,0,0,0,817.85,261.08Z"/><path class="cls-25" d="M821.88,260.33l2-4.88a7.93,7.93,0,0,1,3.94,5.05l-5.36.54A2.72,2.72,0,0,0,821.88,260.33Z"/><path class="cls-25" d="M820.19,259.73a2.7,2.7,0,0,0-.67.09l-2.44-4.67a7.9,7.9,0,0,1,5.37-.3l-2,4.89Z"/><path class="cls-25" d="M828.09,262.07l-4.17.42-1,.1a2.69,2.69,0,0,1-.18.84l4,3.55a7.87,7.87,0,0,0,1.42-4.21c0-.11,0-.22,0-.33S828.1,262.19,828.09,262.07Z"/><path class="cls-26" d="M808.65,262c0,.16,0,.32,0,.48a11.55,11.55,0,0,0,23.07.74c0-.24,0-.49,0-.74a11.55,11.55,0,0,0-23.09-.48Zm7-6,2.47,4.73a2.71,2.71,0,0,0-.31.44l-5.35-.51A7.92,7.92,0,0,1,815.69,255.92Zm6.76-1.07-2,4.89h-.22a2.7,2.7,0,0,0-.67.09l-2.44-4.67a7.9,7.9,0,0,1,5.37-.3Zm5.41,5.66-5.36.54a2.72,2.72,0,0,0-.62-.71l2-4.88A7.93,7.93,0,0,1,827.86,260.5Zm.23,2.27a7.87,7.87,0,0,1-1.42,4.21l-4-3.55a2.69,2.69,0,0,0,.18-.84l1-.1,4.17-.42c0,.12,0,.24,0,.36S828.1,262.66,828.09,262.77Zm-2.46,5.41a7.88,7.88,0,0,1-4.63,2.14l0-5.29a2.69,2.69,0,0,0,.76-.36Zm-10.49.36,3.72-3.74a2.69,2.69,0,0,0,.51.22l0,5.3A7.88,7.88,0,0,1,815.15,268.54Zm-2.88-6.11c0-.1,0-.19,0-.29l5.21.5a2.69,2.69,0,0,0,.28,1L814,267.41A7.88,7.88,0,0,1,812.27,262.44Z"/></svg>