<svg id="Steet" xmlns="http://www.w3.org/2000/svg" xmlns:xlink="http://www.w3.org/1999/xlink" viewBox="0 0 1504.14 309.39"><defs><style>.cls-1{fill:url(#linear-gradient);}.cls-2{fill:#cfd1d2;}.cls-3{fill:#fff;}.cls-4{fill:#cff5f9;}.cls-5{fill:#88e4f9;}.cls-6{fill:#def9fc;}.cls-7{fill:#0d8cc6;}.cls-8{fill:#84e5f6;}.cls-9{fill:#b9f9fc;}.cls-10{fill:#1d98ce;}.cls-11{fill:#228ac4;}.cls-12{fill:#50b9f9;}.cls-13{fill:#17c1dd;}</style><linearGradient id="linear-gradient" x1="752.07" y1="309.39" x2="752.07" y2="266.95" gradientUnits="userSpaceOnUse"><stop offset="0" stop-color="#fff"/><stop offset="1" stop-color="#e4e5e6"/></linearGradient></defs><title>Via_Homepage_Illustration_100416_Street</title><rect class="cls-1" y="266.95" width="1504.14" height="42.44"/><rect class="cls-2" y="254.73" width="1504.14" height="12.22"/><path class="cls-3" d="M1019.7,279.82h-13.09a1.09,1.09,0,0,0,0,2.18h13.09a1.09,1.09,0,1,0,0-2.18Z"/><path class="cls-3" d="M967.34,279.82H954.25a1.09,1.09,0,0,0,0,2.18h13.09a1.09,1.09,0,0,0,0-2.18Z"/><path class="cls-3" d="M993.52,279.82H980.43a1.09,1.09,0,0,0,0,2.18h13.09a1.09,1.09,0,0,0,0-2.18Z"/><path class="cls-3" d="M1098.24,279.82h-13.09a1.09,1.09,0,0,0,0,2.18h13.09a1.09,1.09,0,0,0,0-2.18Z"/><path class="cls-3" d="M1072.06,279.82H1059a1.09,1.09,0,0,0,0,2.18h13.09a1.09,1.09,0,0,0,0-2.18Z"/><path class="cls-3" d="M1045.88,279.82h-13.09a1.09,1.09,0,1,0,0,2.18h13.09a1.09,1.09,0,0,0,0-2.18Z"/><path class="cls-3" d="M915,279.82H901.89a1.09,1.09,0,1,0,0,2.18H915a1.09,1.09,0,0,0,0-2.18Z"/><path class="cls-3" d="M836.44,279.82H823.35a1.09,1.09,0,1,0,0,2.18h13.09a1.09,1.09,0,0,0,0-2.18Z"/><path class="cls-3" d="M810.26,279.82H797.17a1.09,1.09,0,0,0,0,2.18h13.09a1.09,1.09,0,1,0,0-2.18Z"/><path class="cls-3" d="M941.16,279.82H928.07a1.09,1.09,0,0,0,0,2.18h13.09a1.09,1.09,0,1,0,0-2.18Z"/><path class="cls-3" d="M784.08,279.82H771a1.09,1.09,0,0,0,0,2.18h13.09a1.09,1.09,0,0,0,0-2.18Z"/><path class="cls-3" d="M1124.42,279.82h-13.09a1.09,1.09,0,0,0,0,2.18h13.09a1.09,1.09,0,0,0,0-2.18Z"/><path class="cls-3" d="M862.62,279.82H849.53a1.09,1.09,0,0,0,0,2.18h13.09a1.09,1.09,0,0,0,0-2.18Z"/><path class="cls-3" d="M888.8,279.82H875.71a1.09,1.09,0,0,0,0,2.18H888.8a1.09,1.09,0,0,0,0-2.18Z"/><path class="cls-3" d="M1229.14,279.82h-13.09a1.09,1.09,0,0,0,0,2.18h13.09a1.09,1.09,0,0,0,0-2.18Z"/><path class="cls-3" d="M1360,279.82H1347a1.09,1.09,0,0,0,0,2.18H1360a1.09,1.09,0,0,0,0-2.18Z"/><path class="cls-3" d="M1438.58,279.82h-13.09a1.09,1.09,0,0,0,0,2.18h13.09a1.09,1.09,0,0,0,0-2.18Z"/><path class="cls-3" d="M1386.22,279.82h-13.09a1.09,1.09,0,0,0,0,2.18h13.09a1.09,1.09,0,1,0,0-2.18Z"/><path class="cls-3" d="M1150.6,279.82h-13.09a1.09,1.09,0,0,0,0,2.18h13.09a1.09,1.09,0,0,0,0-2.18Z"/><path class="cls-3" d="M1464.76,279.82h-13.09a1.09,1.09,0,0,0,0,2.18h13.09a1.09,1.09,0,0,0,0-2.18Z"/><path class="cls-3" d="M1490.94,279.82h-13.09a1.09,1.09,0,0,0,0,2.18h13.09a1.09,1.09,0,0,0,0-2.18Z"/><path class="cls-3" d="M1412.4,279.82h-13.09a1.09,1.09,0,1,0,0,2.18h13.09a1.09,1.09,0,0,0,0-2.18Z"/><path class="cls-3" d="M1255.32,279.82h-13.09a1.09,1.09,0,0,0,0,2.18h13.09a1.09,1.09,0,1,0,0-2.18Z"/><path class="cls-3" d="M1333.86,279.82h-13.09a1.09,1.09,0,0,0,0,2.18h13.09a1.09,1.09,0,0,0,0-2.18Z"/><path class="cls-3" d="M1176.78,279.82h-13.09a1.09,1.09,0,0,0,0,2.18h13.09a1.09,1.09,0,1,0,0-2.18Z"/><path class="cls-3" d="M1203,279.82h-13.09a1.09,1.09,0,0,0,0,2.18H1203a1.09,1.09,0,0,0,0-2.18Z"/><path class="cls-3" d="M1281.5,279.82h-13.09a1.09,1.09,0,1,0,0,2.18h13.09a1.09,1.09,0,0,0,0-2.18Z"/><path class="cls-3" d="M1307.68,279.82h-13.09a1.09,1.09,0,0,0,0,2.18h13.09a1.09,1.09,0,0,0,0-2.18Z"/><path class="cls-3" d="M784.08,282H771.35a1.09,1.09,0,1,1,0-2.18h12.73a1.09,1.09,0,0,1,0,2.18Zm-25.82,0H745.17a1.09,1.09,0,1,1,0-2.18h13.09a1.09,1.09,0,0,1,0,2.18Zm-26.18,0H719a1.09,1.09,0,0,1,0-2.18h13.09a1.09,1.09,0,1,1,0,2.18Zm-26.18,0H692.81a1.09,1.09,0,0,1,0-2.18H705.9a1.09,1.09,0,1,1,0,2.18Zm-26.18,0H666.63a1.09,1.09,0,0,1,0-2.18h13.09a1.09,1.09,0,1,1,0,2.18Zm-26.18,0H640.45a1.09,1.09,0,1,1,0-2.18h13.09a1.09,1.09,0,1,1,0,2.18Zm-26.18,0H614.27a1.09,1.09,0,1,1,0-2.18h13.09a1.09,1.09,0,0,1,0,2.18Zm-26.18,0H588.09a1.09,1.09,0,1,1,0-2.18h13.09a1.09,1.09,0,0,1,0,2.18ZM575,282H561.91a1.09,1.09,0,0,1,0-2.18H575a1.09,1.09,0,0,1,0,2.18Zm-26.18,0H535.73a1.09,1.09,0,0,1,0-2.18h13.09a1.09,1.09,0,1,1,0,2.18Zm-26.18,0H509.55a1.09,1.09,0,0,1,0-2.18h13.09a1.09,1.09,0,1,1,0,2.18Zm-26.18,0H483.37a1.09,1.09,0,1,1,0-2.18h13.09a1.09,1.09,0,1,1,0,2.18Zm-26.18,0H457.19a1.09,1.09,0,1,1,0-2.18h13.09a1.09,1.09,0,0,1,0,2.18Zm-26.18,0H431a1.09,1.09,0,1,1,0-2.18H444.1a1.09,1.09,0,0,1,0,2.18Zm-26.18,0H404.83a1.09,1.09,0,1,1,0-2.18h13.09a1.09,1.09,0,0,1,0,2.18Zm-26.18,0H378.65a1.09,1.09,0,1,1,0-2.18h13.09a1.09,1.09,0,1,1,0,2.18Zm-26.18,0H352.47a1.09,1.09,0,1,1,0-2.18h13.09a1.09,1.09,0,0,1,0,2.18Zm-26.18,0H326.29a1.09,1.09,0,1,1,0-2.18h13.09a1.09,1.09,0,0,1,0,2.18Zm-26.18,0H300.11a1.09,1.09,0,0,1,0-2.18H313.2a1.09,1.09,0,1,1,0,2.18ZM287,282H273.93a1.09,1.09,0,0,1,0-2.18H287a1.09,1.09,0,1,1,0,2.18Zm-26.18,0H247.75a1.09,1.09,0,0,1,0-2.18h13.09a1.09,1.09,0,1,1,0,2.18Zm-26.18,0H221.57a1.09,1.09,0,1,1,0-2.18h13.09a1.09,1.09,0,0,1,0,2.18Zm-26.18,0H195.39a1.09,1.09,0,1,1,0-2.18h13.09a1.09,1.09,0,0,1,0,2.18Zm-26.18,0H169.21a1.09,1.09,0,1,1,0-2.18H182.3a1.09,1.09,0,0,1,0,2.18Zm-26.18,0H143a1.09,1.09,0,0,1,0-2.18h13.09a1.09,1.09,0,1,1,0,2.18Zm-26.18,0H116.85a1.09,1.09,0,0,1,0-2.18h13.09a1.09,1.09,0,1,1,0,2.18Zm-26.18,0H90.67a1.09,1.09,0,0,1,0-2.18h13.09a1.09,1.09,0,1,1,0,2.18Zm-26.18,0H64.49a1.09,1.09,0,0,1,0-2.18H77.58a1.09,1.09,0,0,1,0,2.18ZM51.4,282H38.31a1.09,1.09,0,0,1,0-2.18H51.4a1.09,1.09,0,0,1,0,2.18Zm-26.18,0H12.13a1.09,1.09,0,1,1,0-2.18H25.22a1.09,1.09,0,0,1,0,2.18Z"/><rect class="cls-4" x="1029.99" y="258.01" width="17.1" height="4.98"/><rect class="cls-4" x="912.79" y="258.01" width="17.1" height="4.98"/><rect class="cls-4" x="620.57" y="258.01" width="17.1" height="4.98"/><rect class="cls-4" x="463.03" y="258.01" width="17.1" height="4.98"/><circle class="cls-4" cx="1038.54" cy="232.04" r="12.46"/><polygon class="cls-5" points="1038.37 229.08 1035.66 259.93 1041.43 259.93 1038.37 229.08"/><rect class="cls-4" x="1182.1" y="258.01" width="17.1" height="4.98"/><circle class="cls-6" cx="629.12" cy="207.19" r="8.95"/><circle class="cls-6" cx="629.12" cy="224.08" r="8.95"/><circle class="cls-6" cx="629.12" cy="238.78" r="8.95"/><circle class="cls-6" cx="620.17" cy="216.14" r="8.95"/><circle class="cls-6" cx="636.91" cy="216.14" r="8.95"/><circle class="cls-6" cx="620.17" cy="230.47" r="8.95"/><circle class="cls-6" cx="636.91" cy="230.47" r="8.95"/><polygon class="cls-7" points="628.82 221.65 625.38 260.84 632.71 260.84 628.82 221.65"/><rect class="cls-4" x="179.31" y="258.01" width="17.1" height="4.98"/><circle class="cls-6" cx="187.87" cy="207.19" r="8.95"/><circle class="cls-6" cx="187.87" cy="224.08" r="8.95"/><circle class="cls-6" cx="187.87" cy="238.78" r="8.95"/><circle class="cls-6" cx="178.91" cy="216.14" r="8.95"/><circle class="cls-6" cx="195.65" cy="216.14" r="8.95"/><circle class="cls-6" cx="178.91" cy="230.47" r="8.95"/><circle class="cls-6" cx="195.65" cy="230.47" r="8.95"/><polygon class="cls-7" points="187.57 221.65 184.13 260.84 191.46 260.84 187.57 221.65"/><rect class="cls-4" x="324.32" y="258.01" width="17.1" height="4.98"/><circle class="cls-4" cx="471.58" cy="232.18" r="12.6"/><circle class="cls-4" cx="471.58" cy="210.98" r="8.57"/><polygon class="cls-8" points="471.64 210.98 468.41 261.08 474.76 261.08 471.64 210.98"/><rect class="cls-4" x="29.29" y="258.01" width="17.1" height="4.98"/><circle class="cls-4" cx="37.84" cy="232.18" r="12.6"/><circle class="cls-4" cx="37.84" cy="210.98" r="8.57"/><polygon class="cls-8" points="37.89 210.98 34.66 261.08 41.01 261.08 37.89 210.98"/><rect class="cls-4" x="1329.29" y="258.01" width="17.1" height="4.98"/><circle class="cls-4" cx="1337.84" cy="232.18" r="12.6"/><circle class="cls-4" cx="1337.84" cy="210.98" r="8.57"/><polygon class="cls-8" points="1337.9 210.98 1334.67 261.08 1341.02 261.08 1337.9 210.98"/><circle class="cls-9" cx="921.34" cy="229.31" r="13.34"/><circle class="cls-9" cx="921.34" cy="206.86" r="9.08"/><circle class="cls-9" cx="921.34" cy="192.19" r="5.56"/><polygon class="cls-10" points="921.4 192.19 917.98 260.5 924.7 260.5 921.4 192.19"/><polygon class="cls-11" points="892.13 257.29 894.05 243.46 884.47 243.46 886.22 257.29 892.13 257.29"/><circle class="cls-6" cx="1191.11" cy="218.39" r="7.03"/><circle class="cls-6" cx="1191.11" cy="231.65" r="7.03"/><circle class="cls-6" cx="1191.11" cy="243.18" r="7.03"/><circle class="cls-6" cx="1184.08" cy="225.42" r="7.03"/><circle class="cls-6" cx="1197.22" cy="225.42" r="7.03"/><circle class="cls-6" cx="1184.08" cy="236.67" r="7.03"/><circle class="cls-6" cx="1197.22" cy="236.67" r="7.03"/><polygon class="cls-12" points="1190.87 229.74 1188.17 260.5 1193.93 260.5 1190.87 229.74"/><circle class="cls-6" cx="332.87" cy="229.31" r="13.34"/><circle class="cls-6" cx="332.87" cy="206.86" r="9.08"/><circle class="cls-6" cx="332.87" cy="192.19" r="5.56"/><polygon class="cls-13" points="332.94 192.19 329.51 260.5 336.24 260.5 332.94 192.19"/><rect class="cls-4" x="1468.83" y="258.01" width="17.1" height="4.98"/><circle class="cls-6" cx="1477.38" cy="229.31" r="13.34"/><circle class="cls-6" cx="1477.38" cy="206.86" r="9.08"/><circle class="cls-6" cx="1477.38" cy="192.19" r="5.56"/><polygon class="cls-13" points="1477.44 192.19 1474.02 260.5 1480.74 260.5 1477.44 192.19"/></svg>