<svg id="Buildings_Bottom" data-name="Buildings Bottom" xmlns="http://www.w3.org/2000/svg" viewBox="0 0 1504.14 309.39"><defs><style>.cls-1{fill:#b4f6f9;}.cls-2{fill:#1fb6e8;}.cls-3{fill:#67d3f9;}.cls-4{fill:#3dcef4;}.cls-5{fill:#76d3f4;}.cls-6{fill:#8ce0f9;}.cls-7{fill:#2ba0e2;}.cls-8{fill:#cff5f9;}.cls-9{fill:#b7e8f4;}.cls-10{fill:#86d8ec;}.cls-11{fill:#5fcfea;}.cls-12{fill:#42c3e7;}.cls-13{fill:#1fc2e8;}.cls-14{fill:#88e4f9;}.cls-15{fill:#48cbef;}.cls-16{fill:#61c7e2;}.cls-17{fill:#56c9e8;}.cls-18{fill:#9ae4f7;}.cls-19{fill:#8fd5e5;}.cls-20{fill:#5ac7e5;}.cls-21{fill:#69dce8;}.cls-22{fill:#78e6f9;}.cls-23{fill:#2fbece;}.cls-24{fill:#d2f8fc;}.cls-25{fill:#aaf5f9;}.cls-26{fill:#ffda17;}</style></defs><title>Via_Homepage_Illustration_100416_Buildings_Bottom</title><rect class="cls-1" x="15.89" y="175.64" width="30.52" height="79.09"/><polygon class="cls-2" points="67.73 254.74 39.77 254.74 39.77 147.42 67.73 156.22 67.73 254.74"/><rect class="cls-3" x="108.74" y="193.52" width="99.17" height="61.11"/><rect class="cls-4" x="108.74" y="189.84" width="99.17" height="3.7"/><rect class="cls-5" x="295.39" y="189.75" width="61.49" height="64.88"/><polygon class="cls-2" points="397.83 254.63 370.78 254.63 370.78 150.79 397.83 159.3 397.83 254.63"/><polygon class="cls-6" points="374.14 159.23 374.14 165.27 394.6 165.27 394.6 163.77 374.14 159.23"/><rect class="cls-6" x="374.14" y="167.88" width="20.47" height="2.7"/><rect class="cls-1" x="414.68" y="167.88" width="30.98" height="86.85"/><path class="cls-7" d="M493.08,155.63a13.29,13.29,0,0,0-13.29,13.29v85.82h26.57V168.92A13.29,13.29,0,0,0,493.08,155.63Z"/><rect class="cls-8" x="522.42" y="133.43" width="37.11" height="121.3"/><rect class="cls-9" x="527.36" y="161.82" width="27.02" height="4.32" transform="translate(1081.73 327.95) rotate(180)"/><rect class="cls-10" x="527.36" y="154.2" width="27.02" height="4.32" transform="translate(1081.73 312.72) rotate(180)"/><rect class="cls-11" x="527.36" y="146.59" width="27.02" height="4.32" transform="translate(1081.73 297.5) rotate(180)"/><rect class="cls-12" x="527.36" y="138.67" width="27.02" height="4.32" transform="translate(1081.73 281.66) rotate(180)"/><rect class="cls-13" x="620.17" y="160.44" width="23.11" height="94.29"/><rect class="cls-14" x="598.92" y="115.61" width="29.62" height="139.12"/><rect class="cls-15" x="601.78" y="120.2" width="24.93" height="2.06"/><rect class="cls-15" x="601.78" y="125.18" width="24.93" height="2.06"/><rect class="cls-15" x="601.78" y="130.16" width="24.93" height="2.06"/><rect class="cls-15" x="601.78" y="135.15" width="24.93" height="2.06"/><rect class="cls-15" x="601.78" y="140.32" width="24.93" height="2.06"/><rect class="cls-15" x="601.78" y="145.3" width="24.93" height="2.06"/><rect class="cls-15" x="601.78" y="150.28" width="24.93" height="2.06"/><rect class="cls-15" x="601.78" y="155.27" width="24.93" height="2.06"/><rect class="cls-15" x="601.78" y="160.44" width="24.93" height="2.06"/><rect class="cls-15" x="601.78" y="165.42" width="24.93" height="2.06"/><rect class="cls-15" x="601.78" y="170.41" width="24.93" height="2.06"/><rect class="cls-15" x="601.78" y="175.39" width="24.93" height="2.06"/><rect class="cls-15" x="601.78" y="179.48" width="24.93" height="2.06"/><rect class="cls-15" x="601.78" y="184.46" width="24.93" height="2.06"/><rect class="cls-15" x="601.78" y="189.44" width="24.93" height="2.06"/><rect class="cls-15" x="601.78" y="194.43" width="24.93" height="2.06"/><rect class="cls-14" x="601.78" y="111.95" width="24.06" height="5.33"/><rect class="cls-14" x="604.19" y="109.28" width="19.25" height="5.33"/><polygon class="cls-14" points="614.84 109.71 614.25 93.82 613.21 109.71 614.84 109.71"/><rect class="cls-5" x="695.02" y="161.53" width="29.25" height="93.2"/><polygon class="cls-16" points="695.02 161.53 697.97 159.97 724.27 159.97 724.27 161.53 695.02 161.53"/><rect class="cls-5" x="790.91" y="154.56" width="40.58" height="100.17"/><rect class="cls-17" x="790.91" y="152.34" width="40.58" height="2.22"/><rect class="cls-18" x="905.32" y="180.67" width="59.72" height="74.07"/><polygon class="cls-5" points="913.75 174.05 905.33 180.67 965.04 180.67 971.14 174.05 913.75 174.05"/><rect class="cls-19" x="909" y="188.12" width="48.01" height="3.67"/><rect class="cls-19" x="909" y="195.42" width="48.01" height="3.67"/><rect class="cls-19" x="909" y="202.21" width="48.01" height="3.67"/><rect class="cls-19" x="909" y="209.51" width="48.01" height="3.67"/><polygon class="cls-20" points="965.04 254.73 971.14 254.73 971.14 174.05 965.04 180.67 965.04 254.73"/><rect class="cls-21" x="1039.78" y="170.44" width="27.66" height="84.3"/><rect class="cls-18" x="1089.69" y="144.21" width="30.98" height="110.53"/><rect class="cls-22" x="1039.78" y="169.08" width="27.66" height="1.36"/><rect class="cls-23" x="1263.7" y="202.03" width="47.97" height="52.7"/><rect class="cls-5" x="1263.7" y="198.89" width="47.97" height="4.17"/><rect class="cls-5" x="1279.93" y="208.52" width="15.51" height="15.51"/><rect class="cls-5" x="1279.93" y="229.74" width="15.51" height="15.51"/><polygon class="cls-24" points="1349.98 254.63 1370.51 254.63 1370.51 147.39 1360.25 135.72 1349.98 147.39 1349.98 254.63"/><rect class="cls-25" x="1463.55" y="170.44" width="27.66" height="84.19"/><rect class="cls-22" x="1463.55" y="169.08" width="27.66" height="1.36"/><path class="cls-26" d="M576,155.85h-1.09a2,2,0,1,0-4,0h-1.09a3.09,3.09,0,1,1,6.18,0Z"/><path class="cls-26" d="M581.11,155.85H580a2,2,0,1,0-4,0h-1.09a3.09,3.09,0,1,1,6.18,0Z"/><path class="cls-26" d="M589,147.94h-.7a1.28,1.28,0,1,0-2.55,0h-.7a2,2,0,1,1,3.94,0Z"/><path class="cls-26" d="M592.29,147.94h-.7a1.28,1.28,0,1,0-2.55,0h-.7a2,2,0,0,1,3.94,0Z"/></svg>