<svg id="Buildings_Top" data-name="Buildings Top" xmlns="http://www.w3.org/2000/svg" viewBox="0 0 1504.14 309.39"><defs><style>.cls-1{fill:#e2f5f6;}.cls-2{fill:#17c1dd;}.cls-3{fill:#b7eef4;}.cls-4{fill:#00a8f2;}.cls-5{fill:#0289d3;}.cls-6{fill:#0089ef;}.cls-7{fill:#2ba0e2;}.cls-8{fill:#3dcef4;}.cls-9{fill:#def9fc;}.cls-10{fill:#78e3f4;}.cls-11{fill:#69cbe2;}.cls-12{fill:#69b0e0;}.cls-13{fill:#1fc2e8;}.cls-14{fill:#95deef;}.cls-15{fill:#8ce9f9;}.cls-16{fill:#20ade5;}.cls-17{fill:#e1f0f9;}.cls-18{fill:#0da1c9;}.cls-19{fill:#9ae4f7;}.cls-20{fill:#76d3f4;}</style></defs><title>Via_Homepage_Illustration_100416_Buildings_Top</title><circle class="cls-1" cx="582.11" cy="245.98" r="3.12"/><circle class="cls-1" cx="588.35" cy="245.98" r="3.12"/><circle class="cls-1" cx="594.6" cy="245.98" r="3.12"/><circle class="cls-1" cx="600.85" cy="245.98" r="3.12"/><rect class="cls-2" x="576.96" y="245.98" width="29.14" height="8.76"/><polygon class="cls-3" points="539.64 254.74 547.13 254.74 543.39 250.99 539.64 254.74"/><polygon class="cls-3" points="532.16 254.74 539.64 254.74 535.9 250.99 532.16 254.74"/><polygon class="cls-3" points="524.68 254.74 532.16 254.74 528.42 250.99 524.68 254.74"/><polygon class="cls-3" points="517.2 254.74 524.68 254.74 520.94 250.99 517.2 254.74"/><rect class="cls-4" x="332.29" y="211.4" width="42.68" height="43.23"/><rect class="cls-5" x="332.29" y="211.12" width="42.68" height="2.68"/><rect class="cls-6" x="337.19" y="218.41" width="32.6" height="4.23"/><rect class="cls-6" x="337.19" y="227.32" width="32.6" height="4.23"/><polygon class="cls-7" points="269.11 254.74 276.59 254.74 272.85 250.99 269.11 254.74"/><polygon class="cls-7" points="261.63 254.74 269.11 254.74 265.37 250.99 261.63 254.74"/><polygon class="cls-7" points="254.14 254.74 261.63 254.74 257.88 250.99 254.14 254.74"/><polygon class="cls-7" points="246.66 254.74 254.14 254.74 250.4 250.99 246.66 254.74"/><polygon class="cls-7" points="144.7 254.74 122.95 254.74 122.95 219.77 133.82 208.77 144.7 219.77 144.7 254.74"/><rect class="cls-8" x="127.2" y="222.64" width="5" height="5"/><rect class="cls-8" x="135.45" y="222.64" width="5" height="5"/><rect class="cls-8" x="127.2" y="230.53" width="5" height="5"/><rect class="cls-8" x="135.45" y="230.53" width="5" height="5"/><polygon class="cls-9" points="84.55 254.74 92.03 254.74 88.29 250.99 84.55 254.74"/><polygon class="cls-9" points="77.07 254.74 84.55 254.74 80.81 250.99 77.07 254.74"/><polygon class="cls-9" points="69.59 254.74 77.07 254.74 73.33 250.99 69.59 254.74"/><rect class="cls-4" y="210.06" width="39.77" height="44.68"/><rect class="cls-5" y="209.77" width="39.77" height="2.77"/><rect class="cls-6" x="4.57" y="217.3" width="30.38" height="4.37"/><rect class="cls-6" x="4.57" y="226.51" width="30.38" height="4.37"/><rect class="cls-10" x="654.67" y="194.52" width="44.52" height="60.22"/><polygon class="cls-11" points="654.67 194.52 663.63 189.29 704.84 189.29 699.19 194.52 654.67 194.52"/><polygon class="cls-12" points="704.84 189.29 704.84 254.74 699.19 254.73 699.19 194.52 704.84 189.29"/><rect class="cls-13" x="746.36" y="169.34" width="53.3" height="85.39"/><rect class="cls-14" x="752.25" y="173.66" width="11.55" height="5.62"/><rect class="cls-14" x="767.48" y="173.66" width="11.55" height="5.62"/><rect class="cls-14" x="783.28" y="173.66" width="11.55" height="5.62"/><rect class="cls-14" x="752.25" y="183.28" width="11.55" height="5.62"/><rect class="cls-14" x="767.48" y="183.28" width="11.55" height="5.62"/><rect class="cls-14" x="783.28" y="183.28" width="11.55" height="5.62"/><rect class="cls-14" x="752.25" y="192.7" width="11.55" height="5.62"/><rect class="cls-14" x="767.48" y="192.7" width="11.55" height="5.62"/><rect class="cls-14" x="783.28" y="192.7" width="11.55" height="5.62"/><rect class="cls-14" x="752.25" y="202.31" width="11.55" height="5.62"/><rect class="cls-14" x="767.48" y="202.31" width="11.55" height="5.62"/><rect class="cls-14" x="783.28" y="202.31" width="11.55" height="5.62"/><polygon class="cls-15" points="802.73 166.09 799.65 169.34 747.15 169.34 750.51 166.09 802.73 166.09"/><polygon class="cls-16" points="802.73 166.09 802.73 254.73 799.65 254.73 799.65 169.34 802.73 166.09"/><circle class="cls-17" cx="943.04" cy="245.87" r="3.12"/><circle class="cls-17" cx="949.29" cy="245.87" r="3.12"/><circle class="cls-17" cx="955.54" cy="245.87" r="3.12"/><circle class="cls-17" cx="961.79" cy="245.87" r="3.12"/><rect class="cls-13" x="937.9" y="245.87" width="29.14" height="8.76"/><polygon class="cls-18" points="1024.8 254.74 1032.28 254.74 1028.54 250.99 1024.8 254.74"/><polygon class="cls-18" points="1017.32 254.74 1024.8 254.74 1021.06 250.99 1017.32 254.74"/><polygon class="cls-18" points="1009.84 254.74 1017.32 254.74 1013.58 250.99 1009.84 254.74"/><polygon class="cls-18" points="1002.36 254.74 1009.84 254.74 1006.1 250.99 1002.36 254.74"/><rect class="cls-7" x="1196.96" y="225.04" width="33.09" height="29.7"/><polygon class="cls-19" points="1241.16 254.74 1248.65 254.74 1244.91 250.99 1241.16 254.74"/><polygon class="cls-19" points="1233.68 254.74 1241.16 254.74 1237.42 250.99 1233.68 254.74"/><rect class="cls-20" x="1406.14" y="232.28" width="30" height="22.45"/><polygon class="cls-18" points="1487.47 254.74 1494.95 254.74 1491.21 250.99 1487.47 254.74"/><polygon class="cls-18" points="1494.95 254.74 1502.43 254.74 1498.69 250.99 1494.95 254.74"/><polygon class="cls-7" points="1376.42 254.74 1383.9 254.74 1380.16 250.99 1376.42 254.74"/><polygon class="cls-7" points="1368.94 254.74 1376.42 254.74 1372.68 250.99 1368.94 254.74"/><polygon class="cls-7" points="1361.46 254.74 1368.94 254.74 1365.2 250.99 1361.46 254.74"/></svg>